<?xml version="1.0" encoding="UTF-8" standalone="no"?><!DOCTYPE svg PUBLIC "-//W3C//DTD SVG 1.1//EN" "http://www.w3.org/Graphics/SVG/1.1/DTD/svg11.dtd"><svg width="100%" height="100%" viewBox="0 0 378 369" version="1.1" xmlns="http://www.w3.org/2000/svg" xmlns:xlink="http://www.w3.org/1999/xlink" xml:space="preserve" xmlns:serif="http://www.serif.com/" style="fill-rule:evenodd;clip-rule:evenodd;stroke-linejoin:round;stroke-miterlimit:2;"><g><g><path d="M234.111,91.209c-35.051,0 -63.474,27.879 -63.474,62.274c0,27.513 18.188,50.855 43.408,59.09c3.172,0.576 4.337,-1.351 4.337,-2.996c0,-1.484 -0.059,-6.391 -0.086,-11.594c-17.659,3.767 -21.385,-7.348 -21.385,-7.348c-2.888,-7.196 -7.048,-9.111 -7.048,-9.111c-5.759,-3.865 0.434,-3.786 0.434,-3.786c6.374,0.439 9.73,6.418 9.73,6.418c5.662,9.52 14.849,6.767 18.471,5.176c0.571,-4.024 2.215,-6.772 4.03,-8.327c-14.098,-1.574 -28.919,-6.914 -28.919,-30.776c0,-6.798 2.48,-12.354 6.54,-16.715c-0.659,-1.568 -2.831,-7.902 0.616,-16.48c0,0 5.33,-1.673 17.459,6.384c5.063,-1.379 10.493,-2.071 15.887,-2.096c5.395,0.025 10.829,0.717 15.902,2.096c12.115,-8.057 17.437,-6.384 17.437,-6.384c3.455,8.578 1.283,14.912 0.624,16.48c4.07,4.361 6.531,9.917 6.531,16.715c0,23.919 -14.849,29.185 -28.983,30.726c2.277,1.933 4.305,5.723 4.305,11.533c0,8.332 -0.072,15.038 -0.072,17.089c0,1.658 1.141,3.599 4.359,2.988c25.207,-8.243 43.372,-31.578 43.372,-59.082c0,-34.395 -28.419,-62.274 -63.475,-62.274" style="fill:#181717;"/><path d="M194.679,180.619c-0.14,0.311 -0.636,0.404 -1.088,0.191c-0.462,-0.204 -0.719,-0.626 -0.57,-0.936c0.137,-0.318 0.633,-0.406 1.093,-0.194c0.461,0.203 0.723,0.629 0.565,0.939" style="fill:#181717;fill-rule:nonzero;"/><path d="M197.25,183.433c-0.303,0.275 -0.896,0.148 -1.296,-0.288c-0.416,-0.434 -0.493,-1.015 -0.186,-1.294c0.312,-0.275 0.886,-0.146 1.301,0.288c0.416,0.439 0.497,1.015 0.181,1.294" style="fill:#181717;fill-rule:nonzero;"/><path d="M199.753,187.019c-0.389,0.266 -1.026,0.018 -1.419,-0.536c-0.389,-0.555 -0.389,-1.219 0.009,-1.485c0.393,-0.266 1.021,-0.026 1.419,0.523c0.388,0.563 0.388,1.227 -0.009,1.498" style="fill:#181717;fill-rule:nonzero;"/><path d="M203.181,190.485c-0.348,0.376 -1.089,0.275 -1.631,-0.24c-0.555,-0.501 -0.71,-1.213 -0.362,-1.59c0.353,-0.377 1.098,-0.271 1.645,0.238c0.551,0.502 0.718,1.219 0.348,1.592" style="fill:#181717;fill-rule:nonzero;"/><path d="M207.911,192.497c-0.155,0.487 -0.867,0.708 -1.586,0.501c-0.718,-0.214 -1.188,-0.784 -1.043,-1.277c0.149,-0.491 0.866,-0.722 1.59,-0.5c0.717,0.212 1.188,0.78 1.039,1.276" style="fill:#181717;fill-rule:nonzero;"/><path d="M213.106,192.869c0.018,0.514 -0.592,0.94 -1.347,0.949c-0.758,0.016 -1.373,-0.399 -1.382,-0.904c0,-0.519 0.597,-0.94 1.355,-0.953c0.755,-0.015 1.374,0.399 1.374,0.908" style="fill:#181717;fill-rule:nonzero;"/><path d="M217.94,192.062c0.09,0.501 -0.435,1.015 -1.184,1.152c-0.737,0.133 -1.419,-0.177 -1.513,-0.673c-0.091,-0.514 0.442,-1.028 1.179,-1.161c0.75,-0.128 1.422,0.173 1.518,0.682" style="fill:#181717;fill-rule:nonzero;"/></g><g id="Лупа"><path d="M315.038,84.754c37.084,44.665 30.929,111.034 -13.736,148.117c-44.664,37.084 -111.033,30.929 -148.117,-13.735c-37.084,-44.665 -30.929,-111.034 13.736,-148.118c44.664,-37.083 111.033,-30.929 148.117,13.736Zm-16.208,13.457c29.657,35.719 24.735,88.796 -10.985,118.453c-35.719,29.656 -88.796,24.734 -118.452,-10.985c-29.657,-35.719 -24.735,-88.796 10.985,-118.453c35.719,-29.657 88.796,-24.734 118.452,10.985Z"/><path d="M165.806,229.228c1.943,-1.614 1.255,-5.651 -1.535,-9.012l-10.11,-12.176c-2.79,-3.361 -6.632,-4.779 -8.575,-3.166l-106.335,71.33c-1.943,1.613 -1.255,5.651 1.535,9.011l26.801,32.28c2.79,3.361 6.632,4.779 8.575,3.166l89.644,-91.433Z"/></g></g><path d="M218.75,96.389c12.815,-10.186 30.323,-13.989 47.063,-8.608c20.852,6.704 34.367,25.683 35.127,46.388c-7.905,-17.045 -22.627,-30.867 -41.906,-37.064c-13.574,-4.364 -27.514,-4.34 -40.284,-0.716Z" style="fill:#fff;"/></svg>