<?xml version="1.0" encoding="UTF-8" standalone="no"?>
<!DOCTYPE svg PUBLIC "-//W3C//DTD SVG 1.1//EN" "http://www.w3.org/Graphics/SVG/1.1/DTD/svg11.dtd">
<svg width="100%" height="100%" viewBox="0 0 8889 8889" version="1.1" xmlns="http://www.w3.org/2000/svg" xmlns:xlink="http://www.w3.org/1999/xlink" xml:space="preserve" xmlns:serif="http://www.serif.com/" style="fill-rule:evenodd;clip-rule:evenodd;stroke-linecap:round;stroke-linejoin:round;stroke-miterlimit:1.5;">
    <g transform="matrix(11.1111,0,0,11.1111,0,0)">
        <g transform="matrix(0.883823,0,0,0.801252,47.6594,15.4587)">
            <g id="v.4.3">
                <g>
                    <g id="Черные-глаза" serif:id="Черные глаза">
                        <g transform="matrix(1.17838,0,0,1.17838,-77.8221,-49.0414)">
                            <g transform="matrix(-1.81856,0,0,1.12222,1031.43,-41.3898)">
                                <path d="M318.025,278.122C326.77,278.122 331.985,297.422 331.985,297.422C331.985,297.422 324.313,299.568 315.567,299.568C306.822,299.568 301.961,282.942 301.961,282.942C301.961,282.942 309.28,278.122 318.025,278.122Z" style="fill:rgb(255,244,240);"/>
                            </g>
                            <g>
                                <g transform="matrix(-0.470789,-1.20743,0.855133,-0.333425,382.272,924.464)">
                                    <path d="M441.423,296.388C441.423,296.388 440.175,299.454 439.411,301.002C438.85,302.138 439.163,302.341 439.808,302.154C440.498,301.953 441.036,302.785 441.869,302.785C442.77,302.785 444.884,302.856 445.187,302.138C445.255,301.978 441.423,296.388 441.423,296.388Z" style="fill:rgb(221,138,102);"/>
                                </g>
                                <g transform="matrix(-0.216795,-0.556014,0.575948,-0.224568,353.309,604.106)">
                                    <path d="M441.015,297.284C440.964,297.306 440.163,299.459 439.411,301.002C438.855,302.141 439.163,302.341 439.808,302.154C440.498,301.953 441.036,302.785 441.869,302.785C442.77,302.785 444.884,302.856 445.187,302.138C445.255,301.978 441.015,297.284 441.015,297.284Z" style="fill:white;fill-opacity:0.6;"/>
                                </g>
                                <g transform="matrix(0.897819,0,0,0.897819,30.8016,25.5005)">
                                    <path d="M445.182,292.996C445.111,292.996 445.323,293.001 445.393,293.011C445.532,293.031 445.672,293.056 445.808,293.092C446.167,293.186 446.367,293.55 446.574,293.831C447.297,294.814 447.508,295.937 447.298,297.114" style="fill:none;stroke:white;stroke-width:0.73px;"/>
                                </g>
                            </g>
                            <g transform="matrix(1.19154,0,0,1.29859,-88.8576,-84.5451)">
                                <g transform="matrix(0.681548,0,0,0.681479,238.202,78.9841)">
                                    <path d="M328.851,293.86C328.851,286.028 318.71,283.056 318.71,283.056C327.455,283.056 333.871,285.174 333.871,293.86C333.871,302.546 326.77,309.598 318.025,309.598L315.515,309.347C323.077,308.197 328.851,301.693 328.851,293.86Z" style="fill-opacity:0.32;"/>
                                </g>
                                <g transform="matrix(0.805828,0,0,0.815597,172.375,83.9392)">
                                    <path d="M349.762,230.447C350.806,230.253 351.828,230.09 352.789,229.946C359.185,230.907 364.068,232.917 364.068,239.462C364.068,246.006 359.185,251.441 352.789,252.402L350.666,252.612C343.27,252.612 337.265,246.72 337.265,239.462C337.265,239.415 337.265,239.368 337.265,239.321C337.265,239.287 337.265,239.253 337.265,239.219C337.265,238.971 337.278,238.731 337.303,238.497C337.807,232.375 343.183,230.611 349.762,230.447Z" style="fill-opacity:0.91;"/>
                                    <path d="M349.762,230.447C350.806,230.253 351.828,230.09 352.789,229.946C359.185,230.907 364.068,232.917 364.068,239.462C364.068,246.006 359.185,251.441 352.789,252.402L350.666,252.612C343.27,252.612 337.265,246.72 337.265,239.462C337.265,239.415 337.265,239.368 337.265,239.321C337.265,239.287 337.265,239.253 337.265,239.219C337.265,238.971 337.278,238.731 337.303,238.497C337.807,232.375 343.183,230.611 349.762,230.447Z" style="fill:none;"/>
                                </g>
                                <g transform="matrix(0.681548,0,0,0.681479,238.202,78.9841)">
                                    <path d="M318.223,283.056C318.223,283.056 307.199,286.028 307.199,293.86C307.199,301.693 312.973,308.197 320.535,309.347L318.025,309.598C309.28,309.598 302.179,302.546 302.179,293.86C302.179,285.174 309.477,283.056 318.223,283.056Z" style="fill:white;fill-opacity:0.28;"/>
                                </g>
                                <g transform="matrix(0.297915,0,0,0.297961,360.117,191.487)">
                                    <ellipse cx="318.025" cy="293.86" rx="15.846" ry="15.738"/>
                                </g>
                                <g transform="matrix(0.24095,-0.0360549,0.00938391,0.0618852,370.602,267.685)">
                                    <ellipse cx="319.403" cy="336.582" rx="19.565" ry="19.203" style="fill:white;"/>
                                </g>
                            </g>
                            <g transform="matrix(0.960174,0,0,1.05912,20.2804,25.245)">
                                <path d="M462.827,227.335C463.333,227.311 474.641,223.3 474.641,223.3C474.641,223.3 469.439,226.43 472.26,225.861C475.886,225.129 479.654,223.747 479.654,223.747L476.912,228.22L482.911,223.039L480.239,228.251L485.884,224.782C485.884,224.782 483.494,228.268 483.82,228.269C485.104,228.267 485.613,227.909 485.613,227.909L490.401,224.909L488.505,228.379L494.329,225.736L491.338,228.241C492.444,227.789 495.532,225.736 495.532,225.736L488.517,233.285C488.517,233.285 487.298,234.948 486.472,235.44C485.646,235.932 483.299,237.071 483.299,237.071L482.544,236.851C482.271,236.985 482.095,237.071 482.095,237.071L473.827,234.67L463.628,232.256L452.756,231.776L449.37,231.776L443.177,232.961L439.925,234.805C437.686,236.137 434.985,237.115 433.412,239.535L427.93,245.811L429.147,244.298L427.592,246.231L428.197,245.479L432.011,238.591L436.189,231.045C436.189,231.045 434.56,235.594 435.084,235.191C435.4,234.947 441.468,228.24 441.468,228.24C441.468,228.24 440.06,232.456 441.414,231.045C443.353,229.024 444.079,226.068 444.079,226.068L445.865,229.287L447.093,229.345L452.011,223.921C452.011,223.921 450.571,227.538 452.284,226.887C455.183,225.786 458.388,222.05 458.388,222.05C458.388,222.05 457.635,223.628 457.055,224.931C456.639,225.863 456.311,226.655 456.409,226.627C456.7,226.547 456.991,226.467 457.283,226.387C460.926,225.391 464.642,224.462 466.724,224.186C467.997,224.018 461.959,227.281 462.827,227.335Z" style="fill:rgb(41,12,1);"/>
                            </g>
                            <g transform="matrix(0.897819,0,0,0.975523,46.52,-20.7206)">
                                <path d="M452.702,297.964C436.407,297.964 427.034,315.574 424.788,320.36C424.434,321.112 424.117,321.312 424.257,321.548C424.398,321.783 424.735,321.633 425.632,321.773C429.612,322.391 441.844,324.073 457.232,324.073C476.09,324.073 487.34,304.376 487.34,304.376C487.34,304.376 471.56,297.964 452.702,297.964ZM452.837,298.827C435.122,298.827 425.165,321.111 425.165,321.111C425.165,321.111 440.062,323.308 457.776,323.308C463.073,323.308 471.542,318.401 474.84,315.524C482.572,308.779 485.374,304.851 485.374,304.851C485.374,304.851 470.551,298.827 452.837,298.827Z"/>
                            </g>
                        </g>
                        <g transform="matrix(-1.17838,0,0,1.17838,878.094,-48.1258)">
                            <g transform="matrix(-1.81856,0,0,1.12222,1031.43,-41.3898)">
                                <path d="M318.025,278.122C325.186,278.122 330.014,291.024 331.528,295.698C331.864,296.733 332.036,297.364 332.036,297.364C332.036,297.364 324.313,299.568 315.567,299.568C306.822,299.568 301.961,282.942 301.961,282.942C301.961,282.942 309.28,278.122 318.025,278.122Z" style="fill:rgb(255,244,240);"/>
                            </g>
                            <g>
                                <g transform="matrix(-0.470789,-1.20743,0.855133,-0.333425,382.272,924.464)">
                                    <path d="M441.423,296.388C441.423,296.388 440.175,299.454 439.411,301.002C438.85,302.138 439.163,302.341 439.808,302.154C440.498,301.953 441.036,302.785 441.869,302.785C442.77,302.785 444.884,302.856 445.187,302.138C445.255,301.978 441.423,296.388 441.423,296.388Z" style="fill:rgb(221,138,102);"/>
                                </g>
                                <g transform="matrix(-0.216795,-0.556014,0.575948,-0.224568,353.309,604.106)">
                                    <path d="M441.015,297.284C440.964,297.306 440.163,299.459 439.411,301.002C438.855,302.141 439.163,302.341 439.808,302.154C440.498,301.953 441.036,302.785 441.869,302.785C442.77,302.785 444.884,302.856 445.187,302.138C445.255,301.978 441.015,297.284 441.015,297.284Z" style="fill:white;fill-opacity:0.6;"/>
                                </g>
                                <g transform="matrix(0.897819,0,0,0.897819,30.8016,25.5005)">
                                    <path d="M445.182,292.996C445.111,292.996 445.323,293.001 445.393,293.011C445.532,293.031 445.672,293.056 445.808,293.092C446.167,293.186 446.367,293.55 446.574,293.831C447.297,294.814 447.508,295.937 447.298,297.114" style="fill:none;stroke:white;stroke-width:0.73px;"/>
                                </g>
                            </g>
                            <g transform="matrix(-1.19154,0,0,1.29859,996.324,-84.5343)">
                                <g transform="matrix(0.681548,0,0,0.681479,238.202,78.9841)">
                                    <path d="M328.851,293.86C328.851,286.028 318.71,283.056 318.71,283.056C327.455,283.056 333.871,285.174 333.871,293.86C333.871,302.546 326.77,309.598 318.025,309.598L315.515,309.347C323.077,308.197 328.851,301.693 328.851,293.86Z" style="fill-opacity:0.32;"/>
                                </g>
                                <g transform="matrix(0.805828,0,0,0.815597,172.375,83.9392)">
                                    <path d="M349.762,230.447C350.806,230.253 351.828,230.09 352.789,229.946C359.185,230.907 364.068,232.917 364.068,239.462C364.068,246.006 359.185,251.441 352.789,252.402L350.666,252.612C343.27,252.612 337.265,246.72 337.265,239.462C337.265,239.415 337.265,239.368 337.265,239.321C337.265,239.287 337.265,239.253 337.265,239.219C337.265,238.971 337.278,238.731 337.303,238.497C337.807,232.375 343.183,230.611 349.762,230.447Z" style="fill-opacity:0.85;"/>
                                    <path d="M349.762,230.447C350.806,230.253 351.828,230.09 352.789,229.946C359.185,230.907 364.068,232.917 364.068,239.462C364.068,246.006 359.185,251.441 352.789,252.402L350.666,252.612C343.27,252.612 337.265,246.72 337.265,239.462C337.265,239.415 337.265,239.368 337.265,239.321C337.265,239.287 337.265,239.253 337.265,239.219C337.265,238.971 337.278,238.731 337.303,238.497C337.807,232.375 343.183,230.611 349.762,230.447Z" style="fill:none;"/>
                                </g>
                                <g transform="matrix(0.681548,0,0,0.681479,238.202,78.9841)">
                                    <path d="M318.223,283.056C318.223,283.056 307.199,286.028 307.199,293.86C307.199,301.693 312.973,308.197 320.535,309.347L318.025,309.598C309.28,309.598 302.179,302.546 302.179,293.86C302.179,285.174 309.477,283.056 318.223,283.056Z" style="fill:white;fill-opacity:0.28;"/>
                                </g>
                                <g transform="matrix(0.297915,0,0,0.297961,360.117,191.487)">
                                    <ellipse cx="318.025" cy="293.86" rx="15.846" ry="15.738"/>
                                </g>
                                <g transform="matrix(0.24095,-0.0360549,0.00938391,0.0618852,370.602,267.685)">
                                    <ellipse cx="319.403" cy="336.582" rx="19.565" ry="19.203" style="fill:white;"/>
                                </g>
                            </g>
                            <g transform="matrix(0.960174,0,0,1.05912,20.0545,24.7677)">
                                <path d="M462.827,227.335C463.333,227.311 473.29,222.464 473.29,222.464C473.29,222.464 467.242,228.445 470.063,227.875C473.689,227.143 478.303,222.911 478.303,222.911L475.56,227.384L481.56,222.203L478.887,227.416L484.532,223.946C484.532,223.946 482.143,227.433 482.469,227.433C483.753,227.431 484.262,227.074 484.262,227.074L489.049,224.074L487.153,227.543L492.977,224.901L489.986,227.405C491.092,226.954 494.181,224.901 494.181,224.901L488.517,233.285C488.517,233.285 487.298,234.948 486.472,235.44C485.646,235.932 483.299,237.071 483.299,237.071L482.544,236.851C482.271,236.985 482.095,237.071 482.095,237.071L473.827,234.67L463.631,233.043L452.756,231.776L449.37,231.776L443.177,232.961L439.925,234.805L433.883,239.906L428.796,246.231L427.755,247.023L428.197,245.479L436.189,231.045C436.189,231.045 434.56,235.594 435.084,235.191C435.4,234.947 441.468,228.24 441.468,228.24C441.468,228.24 440.06,232.456 441.414,231.045C443.353,229.024 444.079,226.068 444.079,226.068L445.865,229.287L447.093,229.345L452.011,223.921C452.011,223.921 450.571,227.538 452.284,226.887C455.183,225.786 458.388,222.05 458.388,222.05C458.388,222.05 457.635,223.628 457.055,224.931C456.639,225.863 456.311,226.655 456.409,226.627C456.7,226.547 456.991,226.467 457.283,226.387C460.926,225.391 464.642,224.462 466.724,224.186C467.997,224.018 461.959,227.281 462.827,227.335Z" style="fill:rgb(41,12,1);"/>
                            </g>
                            <g transform="matrix(0.897819,0,0,0.975523,46.52,-20.7206)">
                                <path d="M452.702,297.964C436.42,297.964 427.049,315.546 424.793,320.348C424.436,321.108 423.943,321.284 424.257,321.548C424.572,321.812 425.112,321.701 426.683,321.931C431.493,322.638 443.016,324.073 457.232,324.073C476.09,324.073 487.34,304.376 487.34,304.376C487.34,304.376 471.56,297.964 452.702,297.964ZM452.837,298.827C435.122,298.827 425.165,321.111 425.165,321.111C425.165,321.111 440.062,323.308 457.776,323.308C463.073,323.308 471.542,318.401 474.84,315.524C482.572,308.779 485.374,304.851 485.374,304.851C485.374,304.851 470.551,298.827 452.837,298.827Z"/>
                            </g>
                        </g>
                    </g>
                </g>
            </g>
        </g>
    </g>
</svg>
