<?xml version="1.0" encoding="UTF-8" standalone="no"?><!DOCTYPE svg PUBLIC "-//W3C//DTD SVG 1.1//EN" "http://www.w3.org/Graphics/SVG/1.1/DTD/svg11.dtd"><svg width="100%" height="100%" viewBox="0 0 800 800" version="1.1" xmlns="http://www.w3.org/2000/svg" xmlns:xlink="http://www.w3.org/1999/xlink" xml:space="preserve" xmlns:serif="http://www.serif.com/" style="fill-rule:evenodd;clip-rule:evenodd;stroke-linejoin:round;stroke-miterlimit:2;"><g id="v.4.3"></g><g id="Bangs-Blue" serif:id="Bangs Blue"><path d="M510.947,209.554c-0.631,-4.01 -1.892,-12.03 -3.856,-17.761c-1.981,-5.78 -4.157,-12.02 -8.027,-16.917c-4.977,-6.299 -13.58,-16.904 -21.836,-20.877c-8.256,-3.973 -21.337,-1.609 -27.698,-2.96c-3.804,-0.808 -8.321,-3.156 -10.47,-5.147c-1.766,-1.636 -0.9,-4.939 -2.425,-6.801c-3.658,-4.471 -14.879,-11.941 -19.528,-20.022c-6.895,-11.985 -21.994,-42.556 -21.841,-51.892c0.127,-7.709 18.351,-2.343 22.759,-4.124c2.327,-0.94 2.224,-5.058 3.691,-6.56c1.321,-1.351 3.464,-1.527 5.113,-2.449c3.203,-1.79 8.82,-6.94 14.103,-8.292c5.435,-1.392 12.793,-2.147 18.51,-0.058c5.717,2.09 10.702,8.188 15.794,12.594c5.426,4.696 11.912,10.272 16.761,15.581c4.589,5.024 8.695,10.517 12.328,16.27c4.037,6.392 8.618,14.388 11.889,22.08c3.384,7.959 7.013,18.153 8.415,25.673c1.189,6.373 0,12.965 0,19.448c0,8.985 1.78,25.591 0,34.463c-1.415,7.059 -7.59,14.868 -10.678,18.773" style="fill:url(#_Linear1);"/><path d="M427.029,124.087c-28.382,8.086 -6.225,5.471 -9.978,13.789c-4.562,10.109 -22.016,29.016 -29.664,38.975c-5.352,6.97 -10.836,13.837 -16.223,20.779c-5.925,7.637 -14.321,16.784 -19.326,25.038c-4.619,7.617 -7.051,16.362 -10.706,24.486c-4.204,9.343 -11.893,24.4 -14.515,31.574c-1.32,3.612 -0.543,7.687 -1.216,11.473c-0.976,5.485 -3.563,14.205 -4.635,21.436c-1.292,8.717 -3.283,21.232 -3.118,30.866c0.155,9.081 2.44,18.209 4.106,26.936c1.631,8.547 9.877,27.312 5.89,25.429c-3.988,-1.882 -23.142,-27.009 -29.816,-36.723c-4.503,-6.556 -7.796,-13.986 -10.223,-21.56c-2.438,-7.605 -2.929,-16.049 -4.401,-24.071c-2.233,-12.171 -3.494,-37.737 -9,-48.953c-4.442,-9.046 -20.504,-8.9 -24.039,-18.338c-4.188,-11.182 -1.992,-34 -1.089,-48.754c0.821,-13.407 3.656,-28.202 6.508,-39.768c2.512,-10.185 5.459,-20.488 10.607,-29.627c5.604,-9.948 14.33,-20.959 23.016,-30.061c8.685,-9.101 18.865,-17.043 29.097,-24.549c10.798,-7.92 25.07,-18.273 35.688,-22.975c8.688,-3.848 18.519,-5.247 28.021,-5.237c11.541,0.011 36.38,-0.099 41.222,5.306c4.842,5.405 -12.674,17.227 -12.17,27.124c0.632,12.422 28.808,43.746 15.964,47.405Z" style="fill-opacity:0.2;"/><path d="M430.535,144.517c-1.836,3.236 -7.749,-0.076 -11.038,1.664c-6.215,3.289 -17.61,11.889 -26.249,18.07c-8.722,6.242 -18.516,11.977 -26.084,19.379c-7.537,7.372 -14.321,16.784 -19.326,25.038c-4.619,7.617 -7.051,16.362 -10.706,24.486c-4.204,9.343 -11.893,24.4 -14.515,31.574c-1.32,3.612 -0.543,7.687 -1.216,11.473c-0.976,5.485 -3.563,14.205 -4.635,21.436c-1.292,8.717 -3.283,21.232 -3.118,30.866c0.155,9.081 2.44,18.209 4.106,26.936c1.631,8.547 9.877,27.312 5.89,25.429c-3.988,-1.882 -23.142,-27.009 -29.816,-36.723c-4.503,-6.556 -7.796,-13.986 -10.223,-21.56c-2.438,-7.605 -3.668,-29.676 -4.401,-24.071c-0.733,5.604 5.065,61.483 0,57.698c-5.065,-3.785 -24.886,-59.575 -30.393,-80.406c-3.804,-14.393 -2.051,-29.708 -2.646,-44.583c-0.623,-15.556 -1.992,-34 -1.089,-48.754c0.821,-13.407 3.656,-28.202 6.508,-39.768c2.512,-10.185 5.459,-20.488 10.607,-29.627c5.604,-9.948 14.33,-20.959 23.016,-30.061c8.685,-9.101 18.865,-17.043 29.097,-24.549c10.798,-7.92 25.07,-18.273 35.688,-22.975c8.688,-3.848 18.519,-5.247 28.021,-5.237c11.541,0.011 29.951,0.234 41.222,5.306c11.079,4.987 23.928,15.061 26.4,25.13c0.745,3.033 -3.572,5.735 -3.102,9.892c0.389,3.446 -1.805,7.763 -1.977,11.588c-0.44,9.793 -2.843,20.072 -3.673,25.274c-0.578,3.621 -0.966,7.271 -1.584,10.885c-1.058,6.179 -2.13,21.548 -4.764,26.19Z" style="fill:url(#_Linear2);"/></g><defs><linearGradient id="_Linear1" x1="0" y1="0" x2="1" y2="0" gradientUnits="userSpaceOnUse" gradientTransform="matrix(123.079,93.3407,-119.172,157.141,445.722,71.9602)"><stop offset="0" style="stop-color:#608de6;stop-opacity:1"/><stop offset="1" style="stop-color:#7aa5fa;stop-opacity:1"/></linearGradient><linearGradient id="_Linear2" x1="0" y1="0" x2="1" y2="0" gradientUnits="userSpaceOnUse" gradientTransform="matrix(174.356,32.7399,-66.1134,352.086,243.457,183.614)"><stop offset="0" style="stop-color:#7aa5fa;stop-opacity:1"/><stop offset="1" style="stop-color:#4e87f9;stop-opacity:1"/></linearGradient></defs></svg>