<?xml version="1.0" encoding="UTF-8" standalone="no"?>
<!DOCTYPE svg PUBLIC "-//W3C//DTD SVG 1.1//EN" "http://www.w3.org/Graphics/SVG/1.1/DTD/svg11.dtd">
<svg width="100%" height="100%" viewBox="0 0 800 800" version="1.1" xmlns="http://www.w3.org/2000/svg" xmlns:xlink="http://www.w3.org/1999/xlink" xml:space="preserve" xmlns:serif="http://www.serif.com/" style="fill-rule:evenodd;clip-rule:evenodd;stroke-linecap:round;stroke-linejoin:round;stroke-miterlimit:1.5;">
    <g transform="matrix(2.1427,0,0,2.1583,-453.613,-463.319)">
        <path id="голова" d="M537.862,262.893C558.682,291.408 570.974,326.537 570.974,364.514C570.974,459.771 493.638,537.107 398.381,537.107C303.125,537.107 225.788,459.771 225.788,364.514C225.788,326.537 238.081,291.408 258.901,262.893C279.335,320.192 334.101,361.25 398.381,361.25C462.661,361.25 517.427,320.192 537.862,262.893ZM273.901,393.153C281.409,430.096 320.433,446.349 320.433,446.349L359.875,440.32L343.014,397.153L293.385,378.016C293.385,378.016 266.393,356.209 273.901,393.153ZM525.864,393.153C518.356,430.096 479.332,446.349 479.332,446.349L439.89,440.32L456.752,397.153L506.38,378.016C506.38,378.016 533.372,356.209 525.864,393.153Z" style="stroke:black;stroke-width:0.47px;"/>
        <g id="язык" transform="matrix(1,0,0,1,-5.30111,-159.375)">
            <g transform="matrix(1,0,0,1,41.8002,-10.6056)">
                <path d="M387.914,659.625C387.824,673.916 376.194,685.49 361.882,685.49C347.514,685.49 335.85,673.825 335.85,659.457L387.915,659.457L387.914,659.625Z" style="fill:rgb(255,0,126);"/>
            </g>
            <g transform="matrix(1,0,0,1,17.7745,-41.6318)">
                <path d="M385.908,690.483L411.94,690.483L411.94,690.651C411.849,704.942 400.22,716.516 385.908,716.516L385.908,690.483Z" style="fill:rgb(255,0,84);"/>
            </g>
        </g>
        <g id="глаз" transform="matrix(0.851177,0,0,0.851177,158.313,-52.0043)">
            <circle cx="185.527" cy="543.942" r="22.008" style="fill:rgb(173,255,127);"/>
        </g>
        <g id="Глаз" transform="matrix(0.851177,0,0,0.851177,326.621,-52.0043)">
            <circle cx="185.527" cy="543.942" r="22.008" style="fill:rgb(176,255,130);"/>
        </g>
        <g id="Глаз1" serif:id="Глаз" transform="matrix(1,0,0,0.636092,191.906,106.962)">
            <path d="M123.201,456.894L126.426,478.132L119.976,478.132L123.201,456.894Z"/>
            <g transform="matrix(-1,-6.12323e-16,6.12323e-16,-1,246.402,955.915)">
                <path d="M123.201,456.894L126.426,478.132L119.976,478.132L123.201,456.894Z"/>
            </g>
        </g>
        <g id="Глаз2" serif:id="Глаз" transform="matrix(1,0,0,0.636092,361.336,106.851)">
            <path d="M123.201,456.894L126.426,478.132L119.976,478.132L123.201,456.894Z"/>
            <g transform="matrix(-1,-6.12323e-16,6.12323e-16,-1,246.402,955.915)">
                <path d="M123.201,456.894L126.426,478.132L119.976,478.132L123.201,456.894Z"/>
            </g>
        </g>
        <g id="Нос" transform="matrix(0.636954,0,0,0.636954,293.038,59.8072)">
            <path d="M189.533,606.859C195.438,606.859 200.232,611.653 200.232,617.558L200.232,632.352C198.244,627.545 193.507,624.159 187.985,624.159C180.673,624.159 174.738,630.095 174.738,637.406C174.738,642.928 178.123,647.666 182.93,649.654L147.843,649.654C152.65,647.666 156.035,642.928 156.035,637.406C156.035,630.095 150.099,624.159 142.788,624.159C137.266,624.159 132.529,627.545 130.541,632.352L130.541,617.558C130.541,611.653 135.335,606.859 141.24,606.859L189.533,606.859Z" style="fill:rgb(117,84,90);"/>
        </g>
    </g>
</svg>
