<?xml version="1.0" encoding="UTF-8" standalone="no"?><!DOCTYPE svg PUBLIC "-//W3C//DTD SVG 1.1//EN" "http://www.w3.org/Graphics/SVG/1.1/DTD/svg11.dtd"><svg width="100%" height="100%" viewBox="0 0 378 369" version="1.1" xmlns="http://www.w3.org/2000/svg" xmlns:xlink="http://www.w3.org/1999/xlink" xml:space="preserve" xmlns:serif="http://www.serif.com/" style="fill-rule:evenodd;clip-rule:evenodd;stroke-linejoin:round;stroke-miterlimit:2;"><g><path d="M188.713,8.019c-99.669,0 -180.49,80.803 -180.49,180.49c0,79.742 51.716,147.397 123.43,171.263c9.02,1.671 12.332,-3.915 12.332,-8.682c0,-4.301 -0.168,-18.522 -0.245,-33.604c-50.213,10.918 -60.808,-21.295 -60.808,-21.295c-8.211,-20.859 -20.04,-26.41 -20.04,-26.41c-16.376,-11.202 1.234,-10.972 1.234,-10.972c18.124,1.274 27.668,18.603 27.668,18.603c16.097,27.59 42.223,19.613 52.522,15.001c1.623,-11.663 6.298,-19.628 11.46,-24.135c-40.09,-4.561 -82.232,-20.04 -82.232,-89.199c0,-19.702 7.05,-35.803 18.596,-48.443c-1.874,-4.549 -8.052,-22.906 1.752,-47.767c0,0 15.156,-4.848 49.644,18.504c14.398,-3.999 29.838,-6.005 45.177,-6.077c15.338,0.072 30.79,2.078 45.215,6.077c34.449,-23.352 49.584,-18.504 49.584,-18.504c9.825,24.861 3.647,43.218 1.773,47.767c11.572,12.64 18.572,28.741 18.572,48.443c0,69.326 -42.223,84.587 -82.414,89.055c6.474,5.602 12.242,16.586 12.242,33.425c0,24.149 -0.206,43.586 -0.206,49.531c0,4.806 3.246,10.434 12.395,8.661c71.678,-23.893 123.328,-91.524 123.328,-171.242c0,-99.687 -80.809,-180.49 -180.489,-180.49" style="fill:#fff;"/><path d="M76.585,267.161c-0.398,0.899 -1.809,1.168 -3.094,0.55c-1.312,-0.589 -2.044,-1.812 -1.62,-2.711c0.389,-0.921 1.8,-1.178 3.109,-0.562c1.309,0.589 2.056,1.823 1.605,2.723" style="fill:#fff;fill-rule:nonzero;"/><path d="M83.896,275.316c-0.861,0.798 -2.546,0.427 -3.685,-0.834c-1.184,-1.258 -1.402,-2.944 -0.529,-3.751c0.888,-0.798 2.52,-0.425 3.7,0.834c1.184,1.273 1.414,2.944 0.514,3.751" style="fill:#fff;fill-rule:nonzero;"/><path d="M91.012,285.709c-1.106,0.772 -2.917,0.051 -4.035,-1.554c-1.105,-1.608 -1.105,-3.533 0.027,-4.304c1.118,-0.771 2.902,-0.074 4.035,1.516c1.103,1.632 1.103,3.556 -0.027,4.342" style="fill:#fff;fill-rule:nonzero;"/><path d="M100.761,295.753c-0.989,1.091 -3.096,0.798 -4.639,-0.69c-1.578,-1.456 -2.017,-3.521 -1.028,-4.612c1.004,-1.094 3.124,-0.786 4.678,0.69c1.566,1.453 2.041,3.533 0.989,4.612" style="fill:#fff;fill-rule:nonzero;"/><path d="M114.211,301.585c-0.44,1.413 -2.466,2.053 -4.51,1.452c-2.042,-0.619 -3.378,-2.271 -2.965,-3.7c0.424,-1.426 2.463,-2.092 4.522,-1.45c2.038,0.616 3.377,2.26 2.953,3.698" style="fill:#fff;fill-rule:nonzero;"/><path d="M128.983,302.665c0.051,1.488 -1.683,2.723 -3.829,2.749c-2.158,0.051 -3.906,-1.156 -3.93,-2.621c0,-1.503 1.697,-2.723 3.852,-2.761c2.146,-0.042 3.907,1.156 3.907,2.633" style="fill:#fff;fill-rule:nonzero;"/><path d="M142.727,300.327c0.257,1.449 -1.234,2.941 -3.365,3.338c-2.095,0.386 -4.035,-0.514 -4.301,-1.952c-0.26,-1.488 1.255,-2.979 3.35,-3.365c2.134,-0.371 4.044,0.502 4.316,1.979" style="fill:#fff;fill-rule:nonzero;"/></g></svg>