<?xml version="1.0" encoding="UTF-8"?>
<svg width="500px" height="500px" viewBox="0 0 500 500" xmlns="http://www.w3.org/2000/svg" xmlns:xlink="http://www.w3.org/1999/xlink" version="1.1">
 <!-- Generated by Pixelmator Pro 1.5.4 -->
 <g id="Snapchat">
  <path id="Путь" d="M492.633 361.738 C489.222 352.475 482.734 347.522 475.345 343.42 473.955 342.607 472.678 341.957 471.588 341.457 469.384 340.319 467.13 339.218 464.889 338.056 441.857 325.864 423.871 310.476 411.39 292.231 407.846 287.093 404.771 281.648 402.203 275.961 401.137 272.919 401.186 271.191 401.949 269.614 402.705 268.398 403.707 267.352 404.889 266.545 408.843 263.926 412.923 261.269 415.689 259.477 420.62 256.281 424.525 253.75 427.039 251.959 436.487 245.342 443.093 238.315 447.219 230.463 453.046 219.486 453.81 206.517 449.314 194.932 443.043 178.46 427.476 168.241 408.622 168.253 404.645 168.252 400.679 168.674 396.792 169.512 395.753 169.738 394.714 169.977 393.7 170.241 393.868 158.973 393.61 147.08 392.602 135.375 389.021 94.226 374.598 72.664 359.564 55.471 349.937 44.699 338.6 35.586 326.008 28.501 303.202 15.494 277.346 8.9 249.165 8.918 220.984 8.935 195.261 15.561 172.446 28.596 159.833 35.698 148.484 44.843 138.861 55.658 123.848 72.868 109.452 94.486 105.921 135.601 104.927 147.308 104.684 159.264 104.854 170.469 103.84 170.206 102.813 169.969 101.773 169.744 97.885 168.911 93.919 168.493 89.942 168.499 71.076 168.511 55.495 178.749 49.271 195.229 44.769 206.825 45.53 219.805 51.358 230.795 55.507 238.642 62.122 245.661 71.578 252.265 74.083 254.016 78.004 256.542 82.937 259.77 85.606 261.496 89.501 264.023 93.321 266.549 94.657 267.412 95.793 268.551 96.652 269.889 97.455 271.529 97.481 273.294 96.294 276.55 93.767 282.121 90.75 287.457 87.277 292.492 75.095 310.341 57.652 325.475 35.374 337.595 23.572 343.861 11.307 348.051 6.132 362.138 2.232 372.769 4.793 384.861 14.728 395.045 18.374 398.847 22.602 402.043 27.253 404.515 36.931 409.826 47.222 413.936 57.896 416.753 60.098 417.319 62.189 418.254 64.082 419.515 67.702 422.681 67.192 427.451 72.016 434.434 74.438 438.043 77.514 441.166 81.086 443.643 91.205 450.622 102.573 451.053 114.618 451.509 125.496 451.915 137.829 452.384 151.915 457.019 157.751 458.944 163.813 462.671 170.838 467.024 187.708 477.378 210.802 491.549 249.438 491.525 288.072 491.501 311.311 477.227 328.294 466.814 335.264 462.528 341.284 458.831 346.954 456.949 361.035 452.283 373.367 451.813 384.246 451.392 396.289 450.922 407.657 450.478 417.768 443.485 421.995 440.534 425.515 436.684 428.077 432.211 431.541 426.313 431.451 422.194 434.704 419.312 436.478 418.108 438.44 417.209 440.512 416.655 451.328 413.816 461.753 409.655 471.551 404.267 476.49 401.613 480.935 398.129 484.69 393.967 L484.816 393.818 C494.124 383.846 496.458 372.101 492.633 361.737 Z M458.304 380.212 C437.367 391.793 423.444 390.563 412.62 397.543 403.421 403.469 408.874 416.236 402.193 420.847 393.983 426.524 369.705 420.467 338.349 430.84 312.49 439.406 296.005 464.004 249.484 464.033 202.961 464.062 186.834 439.533 160.537 430.886 129.232 420.552 104.912 426.639 96.683 420.973 90.008 416.37 95.421 403.597 86.228 397.681 75.382 390.715 61.46 391.962 40.521 380.469 27.184 373.116 34.742 368.555 39.186 366.399 115.031 329.62 127.101 272.9 127.638 268.693 128.285 263.597 129.008 259.591 123.397 254.412 117.973 249.407 93.914 234.536 87.238 229.883 76.191 222.178 71.329 214.482 74.904 205.015 77.404 198.466 83.512 195.996 89.922 195.992 91.947 195.996 93.967 196.222 95.944 196.664 108.064 199.286 119.837 205.351 126.635 206.987 127.454 207.196 128.294 207.309 129.139 207.323 132.77 207.321 134.046 205.492 133.792 201.336 133.009 188.078 131.115 162.239 133.19 138.088 136.037 104.86 146.731 88.391 159.441 73.824 165.546 66.821 194.235 36.469 249.132 36.435 304.03 36.401 332.83 66.593 338.944 73.562 351.684 88.115 362.411 104.571 365.274 137.796 367.379 161.944 365.592 187.797 364.75 201.043 364.464 205.413 365.78 207.027 369.411 207.025 370.256 207.01 371.095 206.897 371.914 206.685 378.724 205.041 390.488 198.962 402.605 196.325 404.582 195.881 406.6 195.653 408.627 195.645 415.074 195.641 421.147 198.141 423.655 204.651 427.241 214.112 422.413 221.815 411.364 229.534 404.694 234.195 380.653 249.082 375.236 254.106 369.617 259.293 370.359 263.298 371.013 268.393 371.553 272.662 383.683 329.368 459.585 365.989 464.068 368.228 471.633 372.781 458.304 380.212 Z" fill="#ffffff" fill-opacity="1" stroke="none"/>
  <g id="Ghost-Logo---Primary"/>
 </g>
</svg>
