<?xml version="1.0" encoding="UTF-8"?>
<svg width="512px" height="512px" viewBox="0 0 512 512" xmlns="http://www.w3.org/2000/svg" xmlns:xlink="http://www.w3.org/1999/xlink" version="1.1">
 <!-- Generated by Pixelmator Pro 1.5.4 -->
 <path id="Путь" d="M479.385 359.307 C476.246 350.766 470.268 346.196 463.459 342.411 462.178 341.661 461.001 341.061 459.997 340.599 457.966 339.549 455.888 338.533 453.823 337.46 432.599 326.208 416.027 312.013 404.532 295.187 401.268 290.449 398.437 285.428 396.073 280.184 395.092 277.379 395.138 275.786 395.842 274.333 396.54 273.212 397.464 272.249 398.554 271.505 402.201 269.093 405.963 266.646 408.514 264.996 413.061 262.053 416.662 259.722 418.981 258.072 427.694 251.978 433.788 245.504 437.596 238.268 442.973 228.152 443.685 216.198 439.547 205.516 433.776 190.328 419.431 180.899 402.051 180.899 398.385 180.896 394.729 181.283 391.145 182.053 390.187 182.261 389.229 182.48 388.295 182.723 388.456 172.336 388.225 161.373 387.302 150.582 384.025 112.648 370.741 92.763 356.892 76.906 348.024 66.97 337.578 58.563 325.975 52.025 304.959 40.022 281.128 33.929 255.15 33.929 229.172 33.929 205.456 40.022 184.417 52.025 172.786 58.565 162.319 66.989 153.442 76.953 139.593 92.809 126.31 112.729 123.032 150.628 122.109 161.419 121.878 172.44 122.028 182.769 121.094 182.526 120.147 182.307 119.189 182.099 115.605 181.329 111.949 180.942 108.283 180.945 90.892 180.945 76.523 190.374 70.776 205.562 66.62 216.249 67.314 228.215 72.68 238.349 76.5 245.585 82.594 252.059 91.307 258.152 93.615 259.768 97.228 262.099 101.774 265.077 104.233 266.67 107.822 269.001 111.342 271.332 112.573 272.128 113.62 273.179 114.411 274.413 115.15 275.925 115.173 277.552 114.077 280.553 111.745 285.687 108.96 290.604 105.756 295.244 94.516 311.69 78.428 325.631 57.885 336.791 47.002 342.561 35.693 346.416 30.915 359.399 27.314 369.197 29.668 380.345 38.82 389.739 42.179 393.245 46.075 396.194 50.361 398.475 59.279 403.377 68.763 407.171 78.601 409.774 80.631 410.297 82.558 411.16 84.302 412.324 87.637 415.244 87.164 419.641 91.607 426.081 93.838 429.409 96.672 432.29 99.963 434.575 109.287 441.014 119.766 441.418 130.869 441.845 140.897 442.226 152.265 442.665 165.248 446.946 170.626 448.724 176.212 452.163 182.686 456.179 198.231 465.734 219.512 478.81 255.127 478.81 290.741 478.81 312.172 465.665 327.833 456.075 334.261 452.128 339.812 448.724 345.04 446.992 358.023 442.699 369.391 442.272 379.42 441.891 390.522 441.464 401.001 441.061 410.326 434.621 414.224 431.903 417.471 428.356 419.835 424.234 423.032 418.799 422.951 415.002 425.952 412.347 427.588 411.238 429.397 410.411 431.307 409.901 441.279 407.29 450.892 403.46 459.927 398.499 464.481 396.055 468.581 392.846 472.045 389.012 L472.161 388.874 C480.747 379.687 482.905 368.862 479.385 359.306 Z M447.729 376.317 C428.422 386.981 415.588 385.839 405.606 392.267 397.123 397.725 402.143 409.497 395.981 413.744 388.41 418.972 366.033 413.375 337.123 422.919 313.28 430.801 298.07 453.467 255.185 453.467 212.299 453.467 197.447 430.847 173.211 422.861 144.359 413.317 121.936 418.914 114.354 413.686 108.203 409.439 113.2 397.668 104.729 392.209 94.735 385.781 81.901 386.923 62.605 376.317 50.315 369.531 57.285 365.331 61.382 363.346 131.319 329.485 142.478 277.206 142.975 273.328 143.575 268.631 144.244 264.938 139.074 260.161 134.077 255.544 111.907 241.822 105.756 237.529 95.577 230.42 91.099 223.323 94.4 214.598 96.708 208.562 102.34 206.289 108.249 206.289 110.116 206.294 111.978 206.503 113.8 206.912 124.971 209.335 135.82 214.933 142.086 216.445 142.841 216.638 143.615 216.743 144.394 216.756 147.741 216.756 148.918 215.071 148.687 211.24 147.972 199.018 146.241 175.198 148.168 152.936 150.811 122.307 160.678 107.131 172.403 93.71 178.035 87.258 204.498 59.295 255.104 59.295 305.71 59.295 332.242 87.143 337.874 93.571 349.61 106.993 359.489 122.169 362.109 152.798 364.036 175.06 362.374 198.891 361.59 211.101 361.324 215.129 362.536 216.618 365.883 216.618 366.662 216.605 367.436 216.501 368.191 216.306 374.469 214.794 385.317 209.197 396.489 206.773 398.311 206.365 400.172 206.156 402.04 206.15 407.983 206.15 413.58 208.458 415.888 214.46 419.189 223.184 414.734 230.282 404.544 237.391 398.393 241.684 376.223 255.394 371.226 260.022 366.044 264.8 366.725 268.493 367.325 273.19 367.821 277.125 378.97 329.405 448.918 363.207 453.049 365.273 460.02 369.474 447.729 376.317 Z" fill="#ffffff" fill-opacity="1" stroke="none"/>
 <g id="Ghost-Logo---Primary"/>
</svg>
