<?xml version="1.0" encoding="UTF-8"?>
<svg width="500px" height="500px" viewBox="0 0 500 500" xmlns="http://www.w3.org/2000/svg" xmlns:xlink="http://www.w3.org/1999/xlink" version="1.1">
 <!-- Generated by Pixelmator Pro 1.5.4 -->
 <path id="Twitter" d="M159.156 449.474 C344.057 449.36 445.14 295.964 445.058 163.219 445.055 158.906 445.053 154.592 444.854 150.278 464.453 136.148 481.501 118.295 495.018 98.091 476.983 106.141 457.575 111.446 437.185 114.009 457.961 101.643 473.831 81.829 481.464 58.295 462.06 69.876 440.496 78.124 417.557 82.648 399.114 63.051 373.028 50.911 344.204 50.928 288.714 50.963 243.644 96.088 243.678 151.579 243.683 159.422 244.668 167.068 246.242 174.518 162.71 170.452 88.567 130.302 38.922 69.548 30.304 84.455 25.412 101.713 25.424 120.145 25.445 155.046 43.307 185.82 70.181 203.842 53.71 203.265 38.217 198.765 24.683 191.321 L24.684 192.694 C24.714 241.321 59.445 282.084 105.333 291.271 96.903 293.63 88.08 294.811 78.864 294.817 72.394 294.821 66.119 294.236 60.04 293.065 72.81 333.056 110.083 362.053 154.004 362.81 119.511 389.89 76.188 405.995 29.129 406.024 21.09 406.029 13.05 405.643 5.207 404.667 49.538 432.875 102.489 449.509 159.156 449.474" fill="#ffffff" fill-opacity="1" stroke="none"/>
</svg>
