<?xml version="1.0" encoding="UTF-8"?>
<svg width="500px" height="500px" viewBox="0 0 500 500" xmlns="http://www.w3.org/2000/svg" xmlns:xlink="http://www.w3.org/1999/xlink" version="1.1">
 <!-- Generated by Pixelmator Pro 1.5.4 -->
 <path id="vk" d="M324.918 5.497 L174.495 5.59 C37.211 5.674 4.726 38.199 4.811 175.483 L4.903 325.906 C4.988 463.189 37.513 495.674 174.796 495.59 L325.22 495.497 C462.503 495.412 494.988 462.887 494.903 325.604 L494.811 175.181 C494.726 37.897 461.855 5.413 324.918 5.497 Z M400.517 355.055 L364.9 355.077 C351.414 355.085 347.258 344.368 323.037 319.831 301.93 299.442 292.592 296.682 287.405 296.685 280.142 296.689 278.069 298.765 278.075 308.793 L278.095 340.952 C278.1 349.597 275.337 354.786 252.515 354.8 214.823 354.823 172.966 332.027 143.547 289.512 99.246 227.295 87.115 180.619 87.109 170.936 87.105 165.749 89.177 160.907 99.205 160.901 L134.823 160.879 C143.814 160.873 147.275 165.021 150.739 174.701 168.406 225.523 197.826 270.113 209.929 270.106 214.424 270.103 216.498 268.027 216.491 256.615 L216.458 204.054 C215.06 179.849 202.264 177.782 202.259 169.137 202.256 164.987 205.712 160.835 211.245 160.832 L267.265 160.797 C274.873 160.793 277.641 164.941 277.647 173.931 L277.69 244.82 C277.695 252.428 281.155 255.192 283.23 255.191 287.725 255.188 291.527 252.42 299.821 244.115 325.393 215.398 343.693 171.124 343.693 171.124 346.11 165.936 350.257 161.092 359.247 161.086 L394.866 161.064 C405.585 161.057 408.009 166.589 405.593 174.198 401.111 194.949 357.578 256.529 357.578 256.529 353.778 262.755 352.396 265.522 357.587 272.436 361.395 277.62 373.85 288.332 382.155 298.01 397.381 315.29 409.147 329.806 412.265 339.833 415.73 349.859 410.546 355.049 400.517 355.055 Z" fill="#ffffff" fill-opacity="1" stroke="none"/>
</svg>
