<?xml version="1.0" encoding="UTF-8"?>
<svg width="792px" height="713px" viewBox="0 0 792 713" xmlns="http://www.w3.org/2000/svg" xmlns:xlink="http://www.w3.org/1999/xlink" version="1.1">
 <!-- Generated by Pixelmator Pro 1.5.4 -->
 <path id="VK_Monochrome_Logo" d="M492.666 41.5 L299.234 41.5 C122.699 41.5 80.9 83.299 80.9 259.834 L80.9 453.266 C80.9 629.801 122.699 671.6 299.234 671.6 L492.666 671.6 C669.201 671.6 711 629.801 711 453.266 L711 259.834 C711 83.299 668.756 41.5 492.666 41.5 Z M589.604 491.063 L543.803 491.063 C526.461 491.063 521.125 477.278 489.998 445.707 462.873 419.471 450.867 415.914 444.197 415.914 434.858 415.914 432.19 418.582 432.19 431.477 L432.19 472.831 C432.19 483.948 428.633 490.618 399.285 490.618 350.816 490.618 297.01 461.27 259.213 406.576 202.295 326.535 186.732 266.504 186.732 254.053 186.732 247.383 189.4 241.158 202.295 241.158 L248.096 241.158 C259.658 241.158 264.105 246.494 268.552 258.944 291.23 324.312 329.027 381.674 344.59 381.674 350.371 381.674 353.039 379.006 353.039 364.332 L353.039 296.742 C351.26 265.615 334.807 262.947 334.807 251.83 334.807 246.494 339.254 241.158 346.369 241.158 L418.406 241.158 C428.189 241.158 431.746 246.494 431.746 258.055 L431.746 349.213 C431.746 358.996 436.193 362.553 438.861 362.553 444.641 362.553 449.533 358.996 460.205 348.323 493.111 311.416 516.678 254.498 516.678 254.498 519.791 247.828 525.127 241.602 536.688 241.602 L582.49 241.602 C596.274 241.602 599.387 248.717 596.274 258.5 590.494 285.18 534.465 364.332 534.465 364.332 529.574 372.336 527.795 375.893 534.465 384.787 539.357 391.457 555.365 405.242 566.037 417.693 585.602 439.926 600.721 458.602 604.723 471.498 609.17 484.393 602.5 491.063 589.604 491.063 Z" fill="#ffffff" fill-opacity="1" stroke="none"/>
</svg>
