<?xml version="1.0" encoding="UTF-8" standalone="no"?><!DOCTYPE svg PUBLIC "-//W3C//DTD SVG 1.1//EN" "http://www.w3.org/Graphics/SVG/1.1/DTD/svg11.dtd"><svg width="100%" height="100%" viewBox="0 0 8889 8889" version="1.1" xmlns="http://www.w3.org/2000/svg" xmlns:xlink="http://www.w3.org/1999/xlink" xml:space="preserve" xmlns:serif="http://www.serif.com/" style="fill-rule:evenodd;clip-rule:evenodd;stroke-linejoin:round;stroke-miterlimit:2;"><g id="Long-hair-Blond_2" serif:id="Long hair Blond_2"><path d="M4953.84,439.243c9.32,-55.816 125.05,-109.801 153.205,-73.134c35.524,46.263 66.837,119.044 90.55,149.734c12.661,16.386 32.024,28.037 51.729,34.402c53.521,17.286 197.188,11.143 269.395,69.312c78.942,63.595 150.079,219.408 204.258,312.257c25.442,43.601 69.567,47.482 112.185,54.436c34.214,5.583 67.456,13.147 89.281,44.834c23.542,34.182 43.217,132.668 61.31,232.624c18.43,101.816 35.218,205.158 52.782,243.614c37.633,82.396 145.512,257.591 169.902,343.472c20.364,71.706 -5.875,276.5 13.133,348.578c20.76,78.721 27.089,186.637 30.779,269.319c3.372,75.57 -9.069,151.127 -8.642,226.772c0.604,106.883 179.941,304.497 167.046,417.773c-10.551,92.69 -60.999,176.339 -89.632,265.126c-29.53,91.566 3.181,40.747 -21.554,135.617c-24.504,93.984 -61.942,209.244 -60.867,284.95c0.861,60.72 40.553,121.143 67.314,169.286c14.156,25.465 48.245,208.312 29.415,363.992c-13.837,114.404 -78.262,215.709 -88.507,221.133c-22.994,12.173 -66.558,91.116 -59.752,107.197c6.806,16.081 5.045,186.915 38.438,216.594c172.677,153.472 54.067,282.163 30.133,275.735l-293.198,-100.862l-150.079,-36.305c0,0 -132.336,-25.713 -241.178,-72.201c-82.337,-35.166 -156.137,-89.791 -166.541,-96.523c-19.256,-12.458 -60.539,-508.72 -70.49,-562.933c-7.345,-40.015 -31.404,-371.571 -31.404,-371.571c0,0 12.4,-21.398 26.393,-38.454c12.643,-15.412 34.745,-46.791 35.227,-47.507c8.11,-12.061 66.34,-95.498 68.258,-99.088c5.997,-11.223 53.387,-81.795 56.925,-89.119c3.278,-6.784 11.717,-22.91 18.618,-39.387c8.346,-19.926 14.932,-40.092 15.233,-40.789c2.975,-6.904 59.052,-202.757 64.996,-228.544c0.974,-4.224 11.77,-46.678 13.627,-53.704c3.712,-14.05 16.51,-57.244 16.51,-57.244l6.64,14.102c0,0 0.305,0.472 0.612,1.093c0.197,0.399 0.508,0.832 0.791,1.336c0.381,0.675 0.758,1.438 1.183,2.034c0.797,1.119 1.348,2.713 2.127,4.332c0.959,1.993 2.128,4.063 2.895,5.81c0.563,1.282 1.932,3.736 2.917,5.609c0.291,0.553 0.495,1.132 0.846,1.474c1.194,1.168 1.561,2.802 2.463,4.461c1.53,2.813 3.496,5.922 5.618,8.584c1.747,2.191 3.572,4.242 5.205,6.29c4.059,5.092 9.146,8.054 11.048,9.176c2.215,1.306 4.405,2.27 4.404,2.257c0,-0.112 0.326,-0.061 0.904,0.09c2.805,0.736 11.553,3.85 17.875,2.334c3.409,-0.818 6.664,-1.859 8.948,-3.219c3.344,-1.992 5.893,-3.502 6.241,-3.774c2.122,-1.658 4.209,-2.566 5.878,-3.981c1.646,-1.395 3.641,-2.657 5.344,-4.284c3.113,-2.974 6.086,-5.417 9.2,-8.624c6.456,-6.649 13.653,-14.792 17.899,-19.136c11.668,-11.937 14.121,-16.388 19.059,-26.494c3.819,-7.817 13.572,-32.826 17.378,-35.62c4.696,-3.447 34.573,-88.758 53.798,-138.149c21.782,-55.963 50.631,-105.195 54.557,-115.633c8.403,-22.342 47.688,-120.943 67.556,-194.408c2.176,-8.048 17.453,-65.024 13.417,-96.419c-3.746,-29.147 -2.09,-56.299 0,-92.128c0.399,-6.827 -3.461,-14.912 -4.221,-24.645c-2.413,-30.905 0.018,-74.805 -8.713,-109.707c-12.93,-51.692 -13.93,-104.699 -33.71,-137.904c-11.044,-18.539 -25.685,-24.806 -39.992,-31.709c-33.982,-16.396 -68.955,-12.334 -70.076,-11.562c-6.593,4.532 -20.732,16.389 -33.256,31.979c-2.059,2.563 -3.846,5.2 -5.821,7.935c-0.665,0.921 -1.381,1.993 -2.005,2.94c-0.485,0.736 -1.114,1.432 -1.578,2.161c-1.787,2.801 -3.553,5.427 -5.218,7.996c-9.504,14.668 -27.754,39.42 -27.754,39.42c0,0 -8.368,-160.49 -9.362,-158.741c-10.405,18.3 -49.284,102.92 -50.419,75.096c-2.021,-49.563 -28.217,-15.913 -36.006,-88.376c-1.416,-13.175 -6.225,-76.286 -6.225,-76.286c0,0 -62.069,19.202 -61.641,-1.53c0.762,-36.864 -45.803,-88.508 -45.803,-88.508c0,0 75.085,-11.53 103.531,-53.569c9.283,-13.719 -65.758,5.125 -86.732,-9.289c-20.975,-14.414 -44.126,-52.532 -39.115,-77.194c5.011,-24.662 70.038,-68.589 69.18,-70.776c-14.557,-37.088 -106.011,81.649 -144.446,63.159c-19.465,-9.364 59.941,-102.042 48.953,-116.108c-31.714,-40.594 -16.062,-107.262 -49.596,-146.367c-35.323,-41.191 -116.977,-64.679 -162.342,-100.784c-41.638,-33.138 -157.278,101.027 -206.135,79.937c-17.72,-7.649 -39.093,-29.973 -57.734,-56.985c-20.871,-30.245 -38.315,-66.369 -43.365,-94.35c-26.37,-146.116 -25.535,-809.818 0,-962.738Z" style="fill:url(#_Linear1);"/><path d="M5670.62,4886.36c38.111,-12.357 52.797,-282.724 102.01,-402.666c46.976,-114.49 193.089,-220.138 193.269,-316.986c0.18,-96.847 -181.119,-173.421 -192.19,-264.098c-11.071,-90.678 109.307,-181.531 125.764,-279.967c16.458,-98.437 -31.824,-206.822 -27.02,-310.653c5.941,-128.404 128.578,-180.78 163.253,-297.562c26.699,-89.917 114.607,-432.402 115.776,-526.191c1.649,-132.229 -167.776,-264.157 -206.472,-429.391c-34.163,-145.876 -94.696,-371.399 -112.236,-520.193c-10.738,-91.101 -221.402,-219.127 -220.675,-349.26c0.743,-132.958 -163.673,-301.365 -189.309,-350.652c-19.869,-38.199 -288.031,-133.45 -308.417,-98.313c-18.212,31.391 -243.428,161.685 15.831,189.939c80.44,8.766 165.004,61.277 158.927,70.951c-45.131,71.838 96.186,233.337 123.796,322.557c24.491,79.138 139.903,106.523 165.662,185.258c11.991,36.654 88.436,51.313 113.235,114.179c32.949,83.523 14.468,218.343 19.68,273.593c8.127,86.151 36.669,169.156 52.931,254.148c9.102,47.569 75.009,11.759 125.62,54.639c64.175,54.37 115.276,186.521 121.506,239.551c6.845,58.267 30.151,128.299 -4.067,175.954c-48.566,67.637 -186.42,630.688 -218.487,722.013c-32.068,91.325 -143.846,35.409 -143.846,146.056c0,116.096 89.288,-33.27 58.191,56.257c-20.042,57.699 -114.721,185.245 -114.721,246.326c0,102.991 129.328,249.434 144.605,374.859c11.819,97.042 -208.785,295.337 -189.273,391.129c21.11,103.633 88.546,340.88 126.657,328.523Z" style="fill:#382e0d;fill-opacity:0.12;"/><g><path d="M5046.81,1519.17c-0.809,19.254 -62.905,34.181 -72.956,10.329c-14.75,-35.002 -72.319,-72.3 -79.492,-67.74c-4.566,2.904 -82.973,-104.475 -100.823,-125.092c-17.851,-20.616 -40.415,-10.657 -93.03,-24.463c-17.447,-4.578 -36.235,-9.502 -55.337,-14.499c-85.793,-22.442 -177.9,-46.345 -183.114,-46.901c-24.288,-2.591 -41.313,-29.4 -65.491,-32.872c-36.355,-5.221 -110.968,-4.007 -152.641,1.547c-33.852,4.513 -68.114,14.212 -97.399,31.782c-38.329,22.997 -86.846,107.535 -132.578,106.199c-45.732,-1.335 -114.35,-129.036 -141.811,-114.214c-27.461,14.821 9.554,146.913 -22.955,203.141c-32.508,56.228 -133.162,93.727 -172.096,134.227c-28.867,30.029 -38.272,74.205 -61.508,108.776c-32.06,47.701 -73.198,131.865 -130.853,177.434c-61.817,48.857 -200.039,56.646 -240.047,115.711c-40.008,59.065 -71.801,333.679 -71.801,333.679c0,0 -16.443,-26.414 -23.997,-37.25c-3.545,-5.086 -8.909,-12.943 -13.552,-18.858c-4.129,-5.261 -17.172,-18.449 -17.172,-18.449c0,0 -8.983,-9.158 -19.33,-13.306c-4.596,-1.843 -15.201,-2.545 -25.547,-1.167c-7.546,1.005 -15.589,1.812 -20.92,4.14c-0.919,0.401 -3.327,0.785 -5.041,2.662c-1.144,1.253 -2.629,2.365 -4.146,3.352c-2.335,1.519 -4.918,2.506 -6.397,3.351c-0.646,0.369 -1.512,1.235 -1.193,1.058c0.085,-0.047 -5.11,1.459 -10.185,3.708c-4.807,2.13 -9.505,5.007 -9.505,5.007c0,0 -9.934,5.505 -12.512,10.704c-6.033,12.167 -17.586,27.747 -19.603,41.397c-10.359,70.123 -38.506,171.368 -36.015,257.503c1.628,56.266 2.479,110.395 10.556,155.089c13.841,76.588 37.171,127.36 37.171,127.36c0,0 10.695,31.899 31.348,77.385c23.737,52.276 56.908,121.19 69.654,158.406c4.465,13.036 11.847,29.76 17.072,46.105c3.265,10.214 4.092,13.543 7.755,20.804c3.884,7.699 19.58,46.094 19.58,46.094c0,0 48.045,97.814 91.134,97.245c23.136,-0.305 43.173,-30.833 43.173,-30.833c0,0 2.504,10.108 3.471,13.636c3.636,13.273 7.229,29.321 12.075,45.474c0.476,1.586 0.654,3.263 1.212,4.841c6.856,19.38 9.522,31.762 16.479,52.049c1.719,5.011 3.745,10.273 5.647,15.373c6.35,17.029 12.861,34.304 19.288,50.18c7.823,19.324 14.474,36.629 20.45,47.406c3.479,6.274 10.169,14.011 11.892,20.098c0.964,3.402 54.925,83.705 64.282,103.501c23.33,49.358 45.618,74.829 71.804,115.969c21.618,33.963 75.858,120.695 93.15,145.851c10.484,15.252 95.635,140.233 95.635,140.233c0,0 45.894,56.533 55.53,72.447c21.134,34.905 -15.506,91.765 2.433,127.635c17.733,35.459 33.388,73.461 44.704,110.219c11.057,35.916 16.561,73.338 23.19,110.329c7.718,43.066 17.944,98.382 23.119,148.067c5.616,53.924 17.263,127.469 10.579,175.472c-5.674,40.752 -34.614,75.231 -50.681,112.551c-15.87,36.861 -28.407,75.171 -45.725,111.373c-18.048,37.729 -43.115,75.937 -62.565,115.002c-21.365,42.912 -44.994,107.08 -65.625,142.47c-15.262,26.18 -33.495,52.267 -58.161,69.871c-27.556,19.666 -81.271,26.25 -107.175,48.128c-24.478,20.674 -29.883,68.911 -48.246,83.138c-16.33,12.651 -52.782,-15.863 -61.933,2.222c-9.15,18.085 12.094,71.145 7.029,106.289c-5.205,36.125 -40.932,71.587 -38.264,110.463c2.908,42.391 66.912,125.269 55.714,143.884c-11.197,18.615 -84.457,-26.1 -122.9,-32.195c-35.506,-5.628 -82.849,9.454 -107.76,-4.372c-24.911,-13.826 -32.899,-51.779 -41.707,-78.584c-8.637,-26.283 8.609,-65.131 -11.141,-82.245c-19.749,-17.114 -86.696,-31.284 -107.356,-20.439c-20.66,10.846 -3.637,59.531 -16.604,85.511c-14.854,29.759 -54.842,97.676 -72.52,93.045c-17.678,-4.631 -11.857,-99.4 -33.548,-120.829c-21.69,-21.43 -72.936,-12.104 -96.595,-7.749c-18.56,3.417 -29.78,24.499 -45.36,33.88c-15.158,9.127 -32.287,14.51 -48.12,22.408c-30.251,15.088 -114.928,74.334 -133.385,68.123c-18.457,-6.21 5.795,-78.448 22.644,-105.387c16.849,-26.94 64.086,-39.082 78.45,-56.248c10.136,-12.115 -1.013,-33.899 7.733,-46.752c8.746,-12.854 39.188,-13.221 44.743,-30.37c7.796,-24.062 -6.538,-76.976 2.032,-114.005c8.828,-38.141 53.384,-73.033 50.935,-114.836c-3.242,-55.334 -58.404,-164.87 -70.385,-217.164c-7.192,-31.392 6.1,-65.308 -1.502,-96.603c-8.388,-34.53 133.749,-69.324 116.474,-104.821c-16.943,-34.816 -38.459,-67.316 -54.824,-102.407c-16.428,-35.224 -31.595,-71.74 -43.74,-108.938c-17.707,-54.235 -64.151,-141.388 -62.502,-216.476c2.048,-93.208 53.808,-263.292 74.789,-342.776c12.211,-46.26 40.168,-87.55 51.101,-134.128c5.885,-25.073 -114.894,-99.051 -87.672,-162.827c9.947,-23.304 16.176,-45.273 21.242,-65.546c7.432,-29.748 11.25,-55.09 11.537,-69.447c1.316,-65.953 12.592,-177.683 -8.144,-243.785c-19.16,-61.076 -89.531,-94.672 -116.275,-152.827c-26.858,-58.402 -35.837,-130.653 -44.871,-197.585c-13.531,-100.247 -46.879,-287.482 -36.318,-403.901c9.367,-103.248 71.979,-200.619 99.687,-294.608c26.149,-88.702 41.045,-180.438 66.563,-269.324c29.648,-103.271 89.416,-229.758 111.325,-350.307c23.345,-128.451 -78.845,-184.846 -65.618,-280.27c7.338,-52.941 23.877,-105.866 50.618,-152.143c45.117,-78.08 136.064,-403.201 211.716,-483.3c65.404,-69.248 176.633,-136.881 233.828,-164.257c32.877,-15.737 104.453,14.854 109.347,0c4.893,-14.855 -97.907,-71.959 -79.985,-89.126c17.921,-17.166 138.563,-5.816 187.514,-13.873c36.723,-6.045 74.797,-21.285 106.194,-34.472c28.747,-12.074 55.52,-28.506 82.194,-44.651c46.572,-28.19 128.643,-87.894 197.24,-124.485c79.072,-42.179 176.388,-114.003 277.194,-128.588c155.936,-22.561 519.191,-27.145 658.419,-6.778c72.221,10.565 126.897,86.006 176.951,128.979c9.908,8.506 59.737,40.419 60.178,53.52c4.886,145.099 77.473,934.799 70.48,1101.24Z" style="fill:#f7d18f;"/><path d="M5405.64,4459.05c-24.744,-17.334 -34.037,-202.429 -43.001,-299.778c-8.557,-92.924 -13.706,-166.663 7.573,-236.523c21.28,-69.859 129.642,-70.337 90.901,16.708c-29.973,67.348 85.231,259.072 49.988,323.817c-38.128,70.046 -80.717,213.11 -105.461,195.776Z" style="fill:#5c4b16;fill-opacity:0.12;"/><path d="M6111.98,4534.37c-24.744,-17.334 -34.037,-202.429 -43.002,-299.778c-8.557,-92.923 -13.706,-166.663 7.574,-236.523c21.28,-69.859 129.641,-70.337 90.901,16.709c-29.974,67.347 85.23,259.071 49.987,323.816c-38.128,70.046 -80.717,213.11 -105.46,195.776Z" style="fill:#5c4b16;fill-opacity:0.12;"/><path d="M3656.87,4937.23c-24.744,-17.334 -34.037,-202.429 -43.001,-299.778c-8.557,-92.923 -13.707,-166.663 7.573,-236.522c21.28,-69.86 129.642,-70.338 90.901,16.708c-15.396,34.594 7.513,102.006 28.662,168.169c20.022,62.64 38.465,124.16 21.326,155.647c-38.128,70.046 -80.717,213.11 -105.461,195.776Z" style="fill:#332a0c;fill-opacity:0.12;"/><path d="M2849.49,5446.7c-38.111,-12.357 133.123,-439.937 83.91,-559.879c-46.977,-114.49 -137.241,-251.691 -137.421,-348.538c-0.179,-96.848 125.271,-141.869 136.342,-232.546c11.071,-90.678 -109.307,-181.531 -125.765,-279.967c-16.457,-98.437 31.825,-206.822 27.02,-310.653c-5.941,-128.404 -27.991,-342.99 -62.666,-459.772c-26.699,-89.917 -144.219,-275.705 -145.388,-369.495c-1.648,-132.229 96.802,-258.643 135.498,-423.876c34.163,-145.877 111.586,-409.37 129.125,-558.163c10.738,-91.101 204.513,-181.158 203.786,-311.291c-0.743,-132.958 163.673,-301.365 189.309,-350.652c19.868,-38.199 670.55,-555.093 690.935,-519.956c7.675,13.228 444.149,-148.561 470.264,-112.302c7.783,10.806 425.714,9.272 482.44,63.176c47.134,44.79 63.224,178.503 -13.523,167.783c-185.258,-25.878 -571.983,-46.481 -678.354,-7.39c-133.991,49.242 -352.597,161.897 -372.505,185.434c-52.257,61.779 -451.676,376.158 -445.598,385.832c45.131,71.838 -96.186,233.337 -123.796,322.557c-24.491,79.138 -241.399,156.086 -267.157,234.821c-27.923,85.353 -66.132,239.029 -75.267,335.864c-8.127,86.151 -84.002,186.121 -100.264,271.113c-20.643,107.885 31.399,283.689 20.256,378.542c-6.845,58.266 -30.151,128.299 4.067,175.953c48.566,67.638 126.659,226.171 158.726,317.496c32.068,91.324 33.68,119.806 33.68,230.453c0,116.096 -87.615,140.355 -56.518,229.882c20.042,57.699 120.95,218.495 120.95,279.576c0,102.991 -143.505,263.708 -158.782,389.134c-11.82,97.041 208.785,295.336 189.273,391.128c-21.11,103.633 -274.466,498.093 -312.577,485.736Z" style="fill:#251e09;fill-opacity:0.12;"/><path d="M3407.5,4348.87c-38.111,-12.358 -52.797,-282.725 -102.011,-402.667c-46.976,-114.49 -193.088,-220.137 -193.268,-316.985c-0.18,-96.847 247.94,-125.426 232.663,0c-11.82,97.042 208.785,295.337 189.273,391.129c-21.11,103.633 -88.546,340.88 -126.657,328.523Z" style="fill:#372d0d;fill-opacity:0.12;"/><path d="M5119.08,1329.69c-27.827,20.309 -223.519,-105.827 -331.869,-132.048c-103.424,-25.03 -250.691,23.439 -318.227,-25.282c-67.536,-48.721 37.704,-235.927 117.346,-162.028c61.619,57.175 310.977,3.558 367.846,65.46c61.524,66.969 192.731,233.59 164.904,253.898Z" style="fill:#3c320e;fill-opacity:0.12;"/><path d="M4567.52,459.115c-15.035,30.996 -247.039,11.504 -355.015,39.222c-103.068,26.458 -210.339,138.395 -292.843,127.085c-82.504,-11.309 -77.477,-226.009 27.537,-198.153c81.249,21.552 276.242,-142.862 355.517,-114.907c85.763,30.244 279.839,115.757 264.804,146.753Z" style="fill:#31290c;fill-opacity:0.12;"/><path d="M3465.73,825.152c4.992,34.086 -197.833,148.4 -271.546,232.027c-70.362,79.826 -96.144,232.706 -170.733,269.737c-74.588,37.031 -191.136,-143.351 -88.629,-179.354c79.309,-27.855 148.134,-273.451 229.41,-294.9c87.93,-23.205 296.506,-61.596 301.498,-27.51Z" style="fill:#2c240a;fill-opacity:0.12;"/><path d="M3203.7,5287.18c-29.069,-27.57 74.154,-277.888 81.415,-407.33c6.93,-123.558 -79.414,-281.846 -37.854,-369.323c41.561,-87.477 277.786,-6.375 209.965,100.234c-52.473,82.482 61.182,356.471 2.306,434.511c-63.697,84.429 -226.762,269.479 -255.832,241.908Z" style="fill:#31280b;fill-opacity:0.12;"/></g></g><defs><linearGradient id="_Linear1" x1="0" y1="0" x2="1" y2="0" gradientUnits="userSpaceOnUse" gradientTransform="matrix(1325.33,0,0,4464.32,4934.37,2586.27)"><stop offset="0" style="stop-color:#f6ca7e;stop-opacity:1"/><stop offset="1" style="stop-color:#f7ce9b;stop-opacity:1"/></linearGradient></defs></svg>