<?xml version="1.0" encoding="UTF-8" standalone="no"?><!DOCTYPE svg PUBLIC "-//W3C//DTD SVG 1.1//EN" "http://www.w3.org/Graphics/SVG/1.1/DTD/svg11.dtd"><svg width="100%" height="100%" viewBox="0 0 800 800" version="1.1" xmlns="http://www.w3.org/2000/svg" xmlns:xlink="http://www.w3.org/1999/xlink" xml:space="preserve" xmlns:serif="http://www.serif.com/" style="fill-rule:evenodd;clip-rule:evenodd;stroke-linejoin:round;stroke-miterlimit:2;"><g id="v.4.3"></g><g id="Long-hair-Green" serif:id="Long hair Green"><path d="M445.845,39.532c0.839,-5.024 11.255,-9.882 13.789,-6.582c3.197,4.163 6.015,10.714 8.149,13.476c1.14,1.475 2.882,2.523 4.656,3.096c4.817,1.556 17.747,1.003 24.245,6.238c7.105,5.724 13.508,19.747 18.384,28.103c2.289,3.924 6.261,4.274 10.096,4.9c3.08,0.502 6.071,1.183 8.036,4.035c2.118,3.076 3.889,11.94 5.517,20.936c1.659,9.163 3.17,18.464 4.751,21.925c3.387,7.416 13.096,23.183 15.291,30.912c1.833,6.454 -0.529,24.885 1.182,31.372c1.868,7.085 2.438,16.798 2.77,24.239c0.304,6.801 -0.816,13.602 -0.778,20.41c0.055,9.619 16.195,27.404 15.035,37.599c-0.95,8.342 -5.49,15.871 -8.067,23.862c-2.658,8.241 0.286,3.667 -1.94,12.205c-2.206,8.459 -5.575,18.832 -5.478,25.646c0.077,5.464 3.649,10.902 6.058,15.235c1.274,2.292 4.342,18.748 2.647,32.76c-1.245,10.296 -7.043,19.413 -7.965,19.902c-2.07,1.095 -5.99,8.2 -5.378,9.647c0.613,1.448 0.454,16.823 3.459,19.494c15.541,13.812 4.867,25.394 2.712,24.816l-26.387,-9.078l-13.507,-3.267c0,0 -11.911,-2.314 -21.707,-6.498c-7.41,-3.165 -14.052,-8.081 -14.988,-8.687c-1.733,-1.121 -5.449,-45.785 -6.344,-50.664c-0.661,-3.602 -2.827,-33.442 -2.827,-33.442c0,0 1.116,-1.925 2.376,-3.46c1.138,-1.388 3.127,-4.212 3.17,-4.276c0.73,-1.086 5.971,-8.595 6.143,-8.918c0.54,-1.01 4.805,-7.362 5.124,-8.021c0.295,-0.61 1.054,-2.062 1.675,-3.545c0.751,-1.793 1.344,-3.608 1.371,-3.671c0.268,-0.621 5.315,-18.248 5.85,-20.568c0.087,-0.381 1.059,-4.202 1.226,-4.834c0.334,-1.264 1.486,-5.152 1.486,-5.152l0.598,1.269c0,0 0.027,0.043 0.055,0.099c0.018,0.036 0.046,0.075 0.071,0.12c0.034,0.061 0.068,0.129 0.107,0.183c0.071,0.101 0.121,0.244 0.191,0.39c0.086,0.179 0.191,0.366 0.26,0.523c0.051,0.115 0.174,0.336 0.263,0.505c0.026,0.049 0.045,0.101 0.076,0.132c0.108,0.105 0.141,0.252 0.222,0.402c0.138,0.253 0.314,0.533 0.505,0.772c0.158,0.197 0.322,0.382 0.469,0.566c0.365,0.459 0.823,0.725 0.994,0.826c0.2,0.118 0.397,0.205 0.397,0.203c0,-0.01 0.029,-0.005 0.081,0.009c0.252,0.066 1.04,0.346 1.609,0.209c0.306,-0.073 0.599,-0.167 0.805,-0.289c0.301,-0.179 0.53,-0.315 0.562,-0.34c0.191,-0.149 0.378,-0.231 0.529,-0.358c0.148,-0.126 0.327,-0.239 0.481,-0.386c0.28,-0.267 0.547,-0.487 0.828,-0.776c0.581,-0.598 1.228,-1.331 1.611,-1.722c1.05,-1.074 1.27,-1.475 1.715,-2.385c0.344,-0.703 1.221,-2.954 1.564,-3.205c0.422,-0.311 3.111,-7.989 4.842,-12.434c1.96,-5.036 4.557,-9.467 4.91,-10.407c0.756,-2.011 4.292,-10.885 6.08,-17.496c0.196,-0.725 1.571,-5.853 1.207,-8.678c-0.337,-2.623 -0.188,-5.067 0,-8.292c0.036,-0.614 -0.311,-1.342 -0.379,-2.218c-0.218,-2.781 0.001,-6.732 -0.785,-9.873c-1.163,-4.653 -1.253,-9.423 -3.034,-12.412c-0.993,-1.668 -2.311,-2.232 -3.599,-2.854c-3.058,-1.475 -6.206,-1.11 -6.307,-1.04c-0.593,0.408 -1.866,1.475 -2.993,2.878c-0.185,0.231 -0.346,0.468 -0.524,0.714c-0.059,0.083 -0.124,0.179 -0.18,0.265c-0.044,0.066 -0.1,0.129 -0.142,0.194c-0.161,0.252 -0.32,0.489 -0.47,0.72c-0.855,1.32 -2.498,3.548 -2.498,3.548c0,0 -0.753,-14.444 -0.842,-14.287c-0.937,1.647 -4.436,9.263 -4.538,6.759c-0.182,-4.461 -2.539,-1.433 -3.24,-7.954c-0.128,-1.186 -0.561,-6.866 -0.561,-6.866c0,0 -5.586,1.728 -5.547,-0.138c0.068,-3.317 -4.123,-7.965 -4.123,-7.965c0,0 6.758,-1.038 9.318,-4.822c0.836,-1.234 -5.918,0.462 -7.806,-0.836c-1.887,-1.297 -3.971,-4.728 -3.52,-6.947c0.451,-2.22 6.303,-6.173 6.226,-6.37c-1.31,-3.338 -9.541,7.349 -13,5.684c-1.752,-0.842 5.395,-9.183 4.406,-10.449c-2.854,-3.654 -1.446,-9.654 -4.464,-13.173c-3.179,-3.708 -10.528,-5.821 -14.611,-9.071c-3.747,-2.982 -14.155,9.093 -18.552,7.194c-1.595,-0.688 -3.518,-2.697 -5.196,-5.128c-1.878,-2.722 -3.448,-5.973 -3.903,-8.492c-2.373,-13.15 -2.298,-72.883 0,-86.646Z" style="fill:url(#_Linear1);"/><path d="M510.356,439.772c3.43,-1.112 4.752,-25.445 9.181,-36.24c4.228,-10.304 17.378,-19.812 17.394,-28.528c0.017,-8.717 -16.3,-15.608 -17.297,-23.769c-0.996,-8.161 9.838,-16.338 11.319,-25.197c1.481,-8.86 -2.864,-18.614 -2.432,-27.959c0.535,-11.556 11.572,-16.27 14.693,-26.781c2.403,-8.092 10.315,-38.916 10.42,-47.357c0.148,-11.9 -15.1,-23.774 -18.583,-38.645c-3.074,-13.129 -8.522,-33.426 -10.101,-46.817c-0.966,-8.2 -19.926,-19.722 -19.861,-31.434c0.067,-11.966 -14.73,-27.123 -17.037,-31.559c-1.789,-3.437 -25.923,-12.01 -27.758,-8.848c-1.639,2.826 -21.909,14.552 1.425,17.095c7.239,0.789 14.85,5.515 14.303,6.385c-4.062,6.466 8.657,21.001 11.142,29.031c2.204,7.122 12.591,9.587 14.909,16.673c1.08,3.299 7.96,4.618 10.192,10.276c2.965,7.517 1.302,19.651 1.771,24.623c0.731,7.754 3.3,15.224 4.764,22.874c0.819,4.281 6.75,1.058 11.305,4.917c5.776,4.893 10.375,16.787 10.936,21.56c0.616,5.244 2.714,11.547 -0.366,15.836c-4.371,6.087 -16.778,56.761 -19.664,64.981c-2.886,8.219 -12.946,3.187 -12.946,13.145c0,10.448 8.036,-2.995 5.237,5.063c-1.804,5.193 -10.325,16.672 -10.325,22.169c0,9.269 11.64,22.449 13.015,33.738c1.063,8.733 -18.791,26.58 -17.035,35.201c1.9,9.327 7.969,30.679 11.399,29.567Z" style="fill:#382e0d;fill-opacity:0.12;"/><g><path d="M454.213,136.726c-0.073,1.733 -5.661,3.076 -6.566,0.929c-1.327,-3.15 -6.509,-6.507 -7.154,-6.096c-0.411,0.261 -7.468,-9.403 -9.074,-11.258c-1.607,-1.856 -3.638,-0.96 -8.373,-2.202c-1.57,-0.412 -3.261,-0.855 -4.98,-1.305c-7.722,-2.02 -16.011,-4.171 -16.481,-4.221c-2.186,-0.233 -3.718,-2.646 -5.894,-2.959c-3.272,-0.47 -9.987,-0.36 -13.737,0.14c-3.047,0.406 -6.131,1.279 -8.766,2.86c-3.45,2.07 -7.817,9.678 -11.932,9.558c-4.116,-0.12 -10.292,-11.613 -12.763,-10.279c-2.472,1.333 0.859,13.222 -2.066,18.282c-2.926,5.061 -11.985,8.436 -15.489,12.081c-2.598,2.702 -3.445,6.678 -5.536,9.79c-2.885,4.293 -6.588,11.867 -11.777,15.969c-5.563,4.397 -18.003,5.098 -21.604,10.414c-3.6,5.315 -6.462,30.031 -6.462,30.031c0,0 -1.48,-2.378 -2.16,-3.353c-0.319,-0.458 -0.801,-1.165 -1.219,-1.697c-0.372,-0.474 -1.546,-1.66 -1.546,-1.66c0,0 -0.808,-0.825 -1.739,-1.198c-0.414,-0.166 -1.369,-0.229 -2.3,-0.105c-0.679,0.09 -1.403,0.163 -1.882,0.373c-0.083,0.036 -0.3,0.07 -0.454,0.239c-0.103,0.113 -0.237,0.213 -0.373,0.302c-0.21,0.137 -0.443,0.225 -0.576,0.301c-0.058,0.034 -0.136,0.112 -0.107,0.096c0.007,-0.005 -0.46,0.131 -0.917,0.333c-0.433,0.192 -0.855,0.451 -0.855,0.451c0,0 -0.894,0.496 -1.126,0.963c-0.544,1.095 -1.583,2.498 -1.765,3.726c-0.932,6.311 -3.465,15.423 -3.241,23.175c0.146,5.064 0.223,9.936 0.95,13.958c1.246,6.893 3.345,11.463 3.345,11.463c0,0 0.963,2.871 2.822,6.964c2.136,4.705 5.121,10.908 6.268,14.257c0.402,1.173 1.067,2.678 1.537,4.149c0.294,0.92 0.368,1.219 0.698,1.873c0.349,0.693 1.762,4.148 1.762,4.148c0,0 4.324,8.804 8.202,8.752c2.082,-0.027 3.886,-2.775 3.886,-2.775c0,0 0.225,0.91 0.312,1.228c0.327,1.194 0.651,2.639 1.087,4.092c0.043,0.143 0.059,0.294 0.109,0.436c0.617,1.744 0.857,2.858 1.483,4.684c0.155,0.451 0.337,0.925 0.508,1.384c0.572,1.533 1.158,3.087 1.736,4.516c0.704,1.739 1.303,3.297 1.841,4.267c0.313,0.564 0.915,1.261 1.07,1.808c0.087,0.307 4.943,7.534 5.785,9.316c2.1,4.442 4.106,6.734 6.463,10.437c1.945,3.056 6.827,10.862 8.383,13.126c0.944,1.373 8.607,12.621 8.607,12.621c0,0 4.131,5.088 4.998,6.521c1.902,3.141 -1.395,8.258 0.219,11.487c1.596,3.191 3.005,6.611 4.023,9.919c0.995,3.233 1.491,6.601 2.087,9.93c0.695,3.876 1.615,8.854 2.081,13.326c0.506,4.853 1.554,11.472 0.952,15.793c-0.51,3.667 -3.115,6.77 -4.561,10.129c-1.428,3.318 -2.557,6.766 -4.115,10.024c-1.625,3.395 -3.881,6.834 -5.631,10.35c-1.923,3.862 -4.05,9.637 -5.906,12.822c-1.374,2.356 -3.015,4.704 -5.235,6.289c-2.48,1.77 -7.314,2.362 -9.646,4.331c-2.203,1.861 -2.689,6.202 -4.342,7.482c-1.469,1.139 -4.75,-1.427 -5.574,0.2c-0.823,1.628 1.089,6.404 0.633,9.566c-0.469,3.252 -3.684,6.443 -3.444,9.942c0.262,3.815 6.022,11.274 5.014,12.95c-1.007,1.675 -7.601,-2.349 -11.061,-2.898c-3.195,-0.506 -7.456,0.851 -9.698,-0.393c-2.242,-1.245 -2.961,-4.66 -3.754,-7.073c-0.777,-2.365 0.775,-5.862 -1.002,-7.402c-1.778,-1.54 -7.803,-2.815 -9.662,-1.839c-1.86,0.976 -0.328,5.357 -1.495,7.696c-1.337,2.678 -4.935,8.79 -6.526,8.374c-1.591,-0.417 -1.068,-8.946 -3.02,-10.875c-1.952,-1.929 -6.564,-1.089 -8.693,-0.697c-1.671,0.307 -2.681,2.205 -4.083,3.049c-1.364,0.821 -2.906,1.306 -4.331,2.016c-2.722,1.358 -10.343,6.691 -12.004,6.132c-1.661,-0.559 0.521,-7.061 2.038,-9.485c1.516,-2.425 5.768,-3.518 7.06,-5.063c0.913,-1.09 -0.091,-3.05 0.696,-4.207c0.787,-1.157 3.527,-1.19 4.027,-2.733c0.702,-2.166 -0.588,-6.928 0.183,-10.261c0.795,-3.433 4.805,-6.573 4.584,-10.335c-0.292,-4.98 -5.256,-14.838 -6.335,-19.545c-0.647,-2.825 0.549,-5.878 -0.135,-8.694c-0.755,-3.108 12.038,-6.239 10.483,-9.434c-1.525,-3.134 -3.461,-6.059 -4.934,-9.217c-1.479,-3.17 -2.844,-6.456 -3.937,-9.804c-1.593,-4.881 -5.773,-12.725 -5.625,-19.483c0.184,-8.389 4.843,-23.696 6.731,-30.85c1.099,-4.163 3.615,-7.879 4.599,-12.071c0.53,-2.257 -10.34,-8.915 -7.89,-14.655c0.895,-2.097 1.456,-4.074 1.911,-5.899c0.669,-2.677 1.013,-4.958 1.039,-6.25c0.118,-5.936 1.133,-15.992 -0.733,-21.941c-1.725,-5.497 -8.058,-8.52 -10.465,-13.754c-2.417,-5.256 -3.225,-11.759 -4.038,-17.783c-1.218,-9.022 -4.219,-25.873 -3.269,-36.351c0.843,-9.292 6.478,-18.056 8.972,-26.515c2.353,-7.983 3.694,-16.239 5.99,-24.239c2.669,-9.294 8.048,-20.678 10.02,-31.528c2.101,-11.56 -7.096,-16.636 -5.906,-25.224c0.661,-4.765 2.149,-9.528 4.556,-13.693c4.06,-7.027 12.246,-36.288 19.054,-43.497c5.887,-6.232 15.897,-12.319 21.045,-14.783c2.959,-1.416 9.401,1.337 9.841,0c0.44,-1.337 -8.812,-6.476 -7.199,-8.021c1.613,-1.545 12.471,-0.524 16.877,-1.249c3.305,-0.544 6.731,-1.915 9.557,-3.102c2.587,-1.087 4.997,-2.566 7.397,-4.019c4.192,-2.537 11.578,-7.91 17.752,-11.203c7.117,-3.797 15.875,-10.261 24.948,-11.573c14.034,-2.031 46.727,-2.443 59.257,-0.61c6.5,0.95 11.421,7.74 15.926,11.608c0.892,0.765 5.376,3.637 5.416,4.816c0.44,13.059 6.972,84.132 6.343,99.112Z" style="fill:#50df08;"/><path d="M486.507,401.314c-2.227,-1.56 -3.063,-18.218 -3.87,-26.98c-0.77,-8.363 -1.233,-14.999 0.682,-21.287c1.915,-6.287 11.668,-6.33 8.181,1.504c-2.698,6.061 7.671,23.316 4.499,29.144c-3.432,6.304 -7.265,19.179 -9.492,17.619Z" style="fill:#5c4b16;fill-opacity:0.12;"/><path d="M550.078,408.093c-2.227,-1.56 -3.064,-18.218 -3.87,-26.98c-0.771,-8.363 -1.234,-14.999 0.681,-21.287c1.915,-6.287 11.668,-6.33 8.181,1.504c-2.697,6.061 7.671,23.316 4.499,29.143c-3.431,6.305 -7.264,19.18 -9.491,17.62Z" style="fill:#5c4b16;fill-opacity:0.12;"/><path d="M329.119,444.351c-2.227,-1.56 -3.064,-18.219 -3.87,-26.98c-0.771,-8.363 -1.234,-15 0.681,-21.287c1.915,-6.288 11.668,-6.331 8.181,1.504c-1.385,3.113 0.676,9.18 2.58,15.135c1.802,5.637 3.462,11.174 1.919,14.008c-3.431,6.304 -7.264,19.18 -9.491,17.62Z" style="fill:#332a0c;fill-opacity:0.12;"/><path d="M256.455,490.203c-3.43,-1.112 11.981,-39.594 7.551,-50.389c-4.227,-10.304 -12.351,-22.652 -12.367,-31.368c-0.017,-8.717 11.274,-12.769 12.27,-20.93c0.997,-8.161 -9.837,-16.337 -11.318,-25.197c-1.482,-8.859 2.864,-18.614 2.431,-27.958c-0.534,-11.557 -2.519,-30.869 -5.64,-41.38c-2.403,-8.092 -12.979,-24.813 -13.085,-33.254c-0.148,-11.901 8.713,-23.278 12.195,-38.149c3.075,-13.129 10.043,-36.843 11.621,-50.235c0.967,-8.199 18.407,-16.304 18.341,-28.016c-0.067,-11.966 14.731,-27.123 17.038,-31.559c1.788,-3.438 60.35,-49.958 62.184,-46.796c0.691,1.191 39.974,-13.37 42.324,-10.107c0.7,0.973 38.314,0.835 43.42,5.686c4.242,4.031 5.69,16.065 -1.218,15.1c-16.673,-2.329 -51.478,-4.183 -61.051,-0.665c-12.06,4.432 -31.734,14.571 -33.526,16.689c-4.703,5.56 -40.651,33.855 -40.104,34.725c4.062,6.466 -8.656,21.001 -11.141,29.03c-2.204,7.123 -21.726,14.048 -24.044,21.134c-2.514,7.682 -5.952,21.513 -6.774,30.228c-0.732,7.754 -7.561,16.751 -9.024,24.4c-1.858,9.71 2.826,25.532 1.823,34.069c-0.616,5.244 -2.714,11.547 0.366,15.836c4.371,6.087 11.399,20.355 14.285,28.574c2.886,8.22 3.031,10.783 3.031,20.741c0,10.449 -7.885,12.632 -5.086,20.69c1.804,5.192 10.885,19.664 10.885,25.161c0,9.27 -12.915,23.734 -14.29,35.022c-1.064,8.734 18.791,26.581 17.034,35.202c-1.899,9.327 -24.701,44.828 -28.131,43.716Z" style="fill:#251e09;fill-opacity:0.12;"/><path d="M306.675,391.398c-3.43,-1.112 -4.752,-25.445 -9.181,-36.24c-4.228,-10.304 -17.378,-19.812 -17.394,-28.529c-0.017,-8.716 22.314,-11.288 20.939,0c-1.064,8.734 18.791,26.581 17.035,35.202c-1.9,9.327 -7.969,30.679 -11.399,29.567Z" style="fill:#372d0d;fill-opacity:0.12;"/><path d="M460.717,119.673c-2.504,1.827 -20.116,-9.525 -29.868,-11.885c-9.308,-2.252 -22.562,2.11 -28.64,-2.275c-6.078,-4.385 3.393,-21.234 10.561,-14.583c5.546,5.146 27.988,0.321 33.106,5.892c5.537,6.027 17.346,21.023 14.841,22.851Z" style="fill:#3c320e;fill-opacity:0.12;"/><path d="M411.077,41.32c-1.354,2.79 -22.234,1.036 -31.952,3.53c-9.276,2.382 -18.93,12.456 -26.356,11.438c-7.425,-1.018 -6.973,-20.341 2.479,-17.834c7.312,1.94 24.861,-12.857 31.996,-10.341c7.719,2.722 25.186,10.418 23.833,13.207Z" style="fill:#31290c;fill-opacity:0.12;"/><path d="M311.916,74.264c0.449,3.067 -17.805,13.356 -24.44,20.882c-6.332,7.184 -8.653,20.944 -15.366,24.276c-6.713,3.333 -17.202,-12.901 -7.976,-16.141c7.138,-2.507 13.332,-24.611 20.647,-26.541c7.913,-2.089 26.685,-5.544 27.135,-2.476Z" style="fill:#2c240a;fill-opacity:0.12;"/><path d="M288.333,475.846c-2.616,-2.481 6.674,-25.01 7.328,-36.66c0.623,-11.12 -7.148,-25.366 -3.407,-33.239c3.74,-7.872 25.001,-0.573 18.897,9.021c-4.723,7.424 5.506,32.083 0.207,39.107c-5.733,7.598 -20.408,24.253 -23.025,21.771Z" style="fill:#31280b;fill-opacity:0.12;"/></g></g><defs><linearGradient id="_Linear1" x1="0" y1="0" x2="1" y2="0" gradientUnits="userSpaceOnUse" gradientTransform="matrix(119.28,0,0,401.789,444.093,232.765)"><stop offset="0" style="stop-color:#4fdd08;stop-opacity:1"/><stop offset="1" style="stop-color:#46c307;stop-opacity:1"/></linearGradient></defs></svg>