<?xml version="1.0" encoding="UTF-8" standalone="no"?>
<!DOCTYPE svg PUBLIC "-//W3C//DTD SVG 1.1//EN" "http://www.w3.org/Graphics/SVG/1.1/DTD/svg11.dtd">
<svg width="100%" height="100%" viewBox="0 0 8889 8889" version="1.1" xmlns="http://www.w3.org/2000/svg" xmlns:xlink="http://www.w3.org/1999/xlink" xml:space="preserve" xmlns:serif="http://www.serif.com/" style="fill-rule:evenodd;clip-rule:evenodd;stroke-linejoin:round;stroke-miterlimit:2;">
    <g transform="matrix(11.1111,0,0,11.1111,0,0)">
        <g transform="matrix(1.18295,0,0,1.18295,-69.9467,-109.439)">
            <g id="губы---Улыбка" serif:id="губы - Улыбка">
                <g>
                    <g>
                        <g transform="matrix(3.20237,0,0,1.14739,-837.1,-53.8896)">
                            <path d="M386.12,377.363C389.845,377.363 393.138,376.952 392.877,379.12C392.16,385.056 396.243,378.359 396.156,381.462C396.137,382.143 391.457,402.706 386.144,403.382C380.671,404.078 375.317,383.416 375.06,380.308C374.993,379.505 375.25,379.654 375.483,379.545C376.022,379.294 377.025,379.836 377.824,379.513C379.819,378.707 382.094,377.363 386.12,377.363Z" style="fill:rgb(170,29,52);"/>
                        </g>
                        <g transform="matrix(0.511835,0,0,0.482512,194.848,192.074)">
                            <path d="M446.962,390.269C446.962,384.349 435.829,382.925 430.249,382.925L361.431,379.544C355.851,379.544 351.32,384.349 351.32,390.269C325.165,389.265 327.321,397.087 351.32,411.719C351.32,417.638 355.851,422.444 361.431,422.444L436.851,422.444C439.448,419.122 444.054,414.401 446.962,411.719C464.758,398.743 466.493,390.956 446.962,390.269Z" style="fill:white;"/>
                        </g>
                        <g transform="matrix(2.87793,0,0,1.11097,-712.894,-40.1479)">
                            <path d="M386.402,392.265C389.503,392.265 397.168,380.723 397.307,380.643C398.395,380.017 396.73,385.775 394.279,391.235C391.695,396.989 388.251,402.913 386.279,402.239C379.774,400.018 374.481,384.957 374.183,380.439C374.171,380.256 374.399,380.89 374.403,380.74C374.47,378.066 382.376,392.265 386.402,392.265Z" style="fill:rgb(214,36,66);"/>
                        </g>
                    </g>
                    <g transform="matrix(1.44653,0,0,1.65477,-180.717,-241.156)">
                        <path d="M399.988,372.547C402.587,371.345 404.315,369.609 406.695,369.924C410.235,370.393 417.055,374.057 421.229,375.361C422.929,375.892 425.78,375.168 424.839,376.747C419.076,379.062 408.115,376.631 399.426,375.863C391.106,376.306 381.188,378.303 375.161,376.747C374.75,376.058 375.008,375.759 375.658,375.611C376.656,375.383 378.226,375.402 379.09,375.177C383.63,373.999 389.425,369.846 392.945,369.574C395.486,369.377 397.389,371.345 399.988,372.547Z" style="fill:rgb(215,37,66);"/>
                    </g>
                </g>
            </g>
        </g>
    </g>
</svg>
