<?xml version="1.0" encoding="UTF-8"?>
<svg width="512px" height="512px" viewBox="0 0 512 512" xmlns="http://www.w3.org/2000/svg" xmlns:xlink="http://www.w3.org/1999/xlink" version="1.1">
 <!-- Generated by Pixelmator Pro 1.5.4 -->
  <!--Created by Aleksandr Shchilkin-->
 <defs>
  <path id="Эллипс" d="M492.583 256.292 C492.583 125.239 386.344 19 255.292 19 124.239 19 18 125.239 18 256.292 18 387.344 124.239 493.583 255.292 493.583 386.344 493.583 492.583 387.344 492.583 256.292 Z"/>
 </defs>
 <defs>
  <linearGradient id="linear-gradient" gradientUnits="userSpaceOnUse" x1="257.636" y1="493.388" x2="257.636" y2="18.737">
   <stop offset="0" stop-color="#fa7118" stop-opacity="1"/>
   <stop offset="1" stop-color="#ff9f02" stop-opacity="1"/>
  </linearGradient>
 </defs>
 <use id="Эллипс-1" xlink:href="#Эллипс" fill="url(#linear-gradient)" fill-opacity="1" stroke="none"/>
 <defs>
  <linearGradient id="linear-gradient-1" gradientUnits="userSpaceOnUse" x1="257.955" y1="498.467" x2="257.955" y2="15.974">
   <stop offset="0" stop-color="#fa7118" stop-opacity="1"/>
   <stop offset="1" stop-color="#ff9f02" stop-opacity="1"/>
  </linearGradient>
 </defs>
 <defs>
  <path id="stroke-path" d="M482.906 200.484 L479.906 189.453 476.344 178.5 472.234 167.672 467.734 157.359 462.672 147.188 457.078 137.172 451.094 127.594 444.766 118.438 437.891 109.5 430.672 100.938 419 88.703 410.688 80.969 402.125 73.719 388.531 63.563 379.234 57.438 369.531 51.703 354.234 43.859 343.781 39.297 333.25 35.281 316.688 30.125 299.563 26.188 289.594 24.5 277.766 23.078 256.75 22.016 238.656 22.594 226.922 23.703 216.734 25.156 199.578 28.672 182.797 33.422 172.109 37.203 161.406 41.578 146.172 48.906 136.156 54.516 126.578 60.484 112.922 70.188 104.047 77.344 95.625 84.828 87.688 92.578 79.938 100.906 72.672 109.5 65.813 118.438 59.469 127.594 53.484 137.188 45.297 152.281 40.563 162.422 36.188 173.125 30.672 189.453 26.375 206.156 24.141 217.781 22.688 227.984 21.109 248.641 21.234 266.984 23.063 287.594 26.328 306.266 30.672 323.156 34.266 334.234 34.25 334.234 38.266 344.766 45.313 360.359 50.672 370.516 56.422 380.25 65.813 394.156 72.672 403.094 79.938 411.688 87.688 420.016 95.625 427.781 104.047 435.25 112.922 442.406 121.906 448.953 131.453 455.234 146.047 463.625 156.344 468.75 166.797 473.313 182.75 479.156 199.469 483.906 211 486.406 211 486.422 220.969 488.094 241.719 490.203 259.75 490.547 280.781 489.219 299.672 486.391 316.625 482.484 327.766 479.172 338.422 475.422 354.297 468.719 364.391 463.688 374.328 458.141 388.688 448.922 397.641 442.406 406.516 435.25 419.031 423.875 426.766 415.969 434.234 407.531 441.297 398.781 447.938 389.672 454.141 380.25 459.906 370.516 465.266 360.359 470 350.219 476.297 334.234 479.906 323.156 482.891 312.156 486.391 295 488.781 275.688 489.578 256.359 489.344 245.813 488.516 233.891 487.078 222 485.406 212.016 482.891 200.484 Z"/>
 </defs>
 <use id="Эллипс-2" stroke="url(#linear-gradient-1)" stroke-opacity="1" stroke-linecap="round" fill="none" stroke-width="6" xlink:href="#stroke-path"/>
 <defs>
  <path id="Путь" d="M113.941 380 C103.48 380 95 371.523 95 361.064 L95 193.298 256 280.51 417 192.818 417 361.064 C417 371.523 408.519 380 398.059 380 L113.941 380 Z M256.046 247.519 L95 179.161 95 152.762 C95 142.304 103.48 133.826 113.941 133.826 L398.059 133.826 C408.519 133.826 417 142.304 417 152.762 L417 179.651 256.046 247.519 Z"/>
 </defs>
 <defs>
  <linearGradient id="linear-gradient-2" gradientUnits="userSpaceOnUse" x1="227.589" y1="328.951" x2="227.589" y2="177.4">
   <stop offset="0" stop-color="#e1e1e1" stop-opacity="1"/>
   <stop offset="1" stop-color="#ffffff" stop-opacity="1"/>
  </linearGradient>
 </defs>
 <use id="Путь-1" xlink:href="#Путь" fill="url(#linear-gradient-2)" fill-opacity="1" stroke="none"/>
 <defs>
  <linearGradient id="linear-gradient-3" gradientUnits="userSpaceOnUse" x1="228.243" y1="326.309" x2="228.243" y2="181.94">
   <stop offset="0" stop-color="#f4f4f4" stop-opacity="1"/>
   <stop offset="1" stop-color="#ececec" stop-opacity="1"/>
  </linearGradient>
 </defs>
 <defs>
  <path id="stroke-path-1" d="M413.969 177.672 L413.844 150.797 412.563 146.234 410.031 142.297 407.234 139.766 404.625 138.25 401.703 137.266 398.297 136.844 113.688 136.844 108.828 137.703 104.625 139.844 102.438 141.734 100.484 144.219 99.109 146.906 98.234 150 98 152.422 98 177.188 256.031 244.266 Z M402.375 376.391 L406.672 374.453 409.563 372.078 411.859 369 413.375 365.422 413.984 361.328 413.984 197.891 256 283.922 98 198.344 98.047 362.297 98.391 364.641 99.406 367.641 100.953 370.313 102.891 372.563 105.375 374.516 108.063 375.891 111.156 376.766 114 377 398.313 377 Z"/>
 </defs>
 <use id="Путь-2" stroke="url(#linear-gradient-3)" stroke-opacity="1" stroke-linecap="round" fill="none" stroke-width="6" xlink:href="#stroke-path-1"/>
</svg>
