<?xml version="1.0" encoding="UTF-8"?>
<svg width="512px" height="512px" viewBox="0 0 512 512" xmlns="http://www.w3.org/2000/svg" xmlns:xlink="http://www.w3.org/1999/xlink" version="1.1">
 <!-- Generated by Pixelmator Pro 1.5.4 -->
 <path id="Путь" d="M172.793 437.6 C340.602 437.6 432.426 298.441 432.426 177.967 432.426 174.052 432.426 170.137 432.248 166.222 450.043 153.409 465.525 137.216 477.804 118.887 461.432 126.183 443.815 130.987 425.308 133.301 444.171 122.09 458.585 104.117 465.525 82.762 447.908 93.262 428.333 100.735 407.512 104.828 390.785 87.033 367.117 76 340.958 76 290.597 76 249.668 116.929 249.668 167.29 249.668 174.408 250.558 181.348 251.982 188.11 176.174 184.373 108.908 147.893 63.886 92.728 56.056 106.252 51.607 121.912 51.607 138.64 51.607 170.315 67.801 198.254 92.18 214.625 77.232 214.092 63.174 209.999 50.895 203.236 L50.895 204.482 C50.895 248.614 82.393 285.628 124.034 293.992 116.382 296.128 108.374 297.195 100.01 297.195 94.138 297.195 88.443 296.661 82.927 295.594 94.494 331.896 128.305 358.233 168.166 358.945 136.846 383.502 97.519 398.094 54.81 398.094 47.514 398.094 40.218 397.739 33.1 396.849 73.317 422.474 121.364 437.6 172.793 437.6" fill="#ffffff" fill-opacity="1" stroke="none"/>
</svg>
