<?xml version="1.0" encoding="UTF-8"?>
<svg width="512px" height="512px" viewBox="0 0 512 512" xmlns="http://www.w3.org/2000/svg" xmlns:xlink="http://www.w3.org/1999/xlink" version="1.1">
 <!-- Generated by Pixelmator Pro 1.5.4 -->
 <defs>
  <path id="Эллипс" d="M492.583 256.292 C492.583 125.239 386.344 19 255.292 19 124.239 19 18 125.239 18 256.292 18 387.344 124.239 493.583 255.292 493.583 386.344 493.583 492.583 387.344 492.583 256.292 Z"/>
 </defs>
 <defs>
  <linearGradient id="linear-gradient" gradientUnits="userSpaceOnUse" x1="257.636" y1="493.388" x2="257.636" y2="18.737">
   <stop offset="0" stop-color="#fa7118" stop-opacity="1"/>
   <stop offset="1" stop-color="#ff9f02" stop-opacity="1"/>
  </linearGradient>
 </defs>
 <use id="Эллипс-1" xlink:href="#Эллипс" fill="url(#linear-gradient)" fill-opacity="1" stroke="none"/>
 <defs>
  <linearGradient id="linear-gradient-1" gradientUnits="userSpaceOnUse" x1="257.955" y1="498.467" x2="257.955" y2="15.974">
   <stop offset="0" stop-color="#fa7118" stop-opacity="1"/>
   <stop offset="1" stop-color="#ff9f02" stop-opacity="1"/>
  </linearGradient>
 </defs>
 <defs>
  <path id="stroke-path" d="M482.906 200.484 L479.906 189.453 476.344 178.5 472.234 167.672 467.734 157.359 462.672 147.188 457.078 137.172 451.094 127.594 444.766 118.438 437.891 109.5 430.672 100.938 419 88.703 410.688 80.969 402.125 73.719 388.531 63.563 379.234 57.438 369.531 51.703 354.234 43.859 343.781 39.297 333.25 35.281 316.688 30.125 299.563 26.188 289.594 24.5 277.766 23.078 256.75 22.016 238.656 22.594 226.922 23.703 216.734 25.156 199.578 28.672 182.797 33.422 172.109 37.203 161.406 41.578 146.172 48.906 136.156 54.516 126.578 60.484 112.922 70.188 104.047 77.344 95.625 84.828 87.688 92.578 79.938 100.906 72.672 109.5 65.813 118.438 59.469 127.594 53.484 137.188 45.297 152.281 40.563 162.422 36.188 173.125 30.672 189.453 26.375 206.156 24.141 217.781 22.688 227.984 21.109 248.641 21.234 266.984 23.063 287.594 26.328 306.266 30.672 323.156 34.266 334.234 34.25 334.234 38.266 344.766 45.313 360.359 50.672 370.516 56.422 380.25 65.813 394.156 72.672 403.094 79.938 411.688 87.688 420.016 95.625 427.781 104.047 435.25 112.922 442.406 121.906 448.953 131.453 455.234 146.047 463.625 156.344 468.75 166.797 473.313 182.75 479.156 199.469 483.906 211 486.406 211 486.422 220.969 488.094 241.719 490.203 259.75 490.547 280.781 489.219 299.672 486.391 316.625 482.484 327.766 479.172 338.422 475.422 354.297 468.719 364.391 463.688 374.328 458.141 388.688 448.922 397.641 442.406 406.516 435.25 419.031 423.875 426.766 415.969 434.234 407.531 441.297 398.781 447.938 389.672 454.141 380.25 459.906 370.516 465.266 360.359 470 350.219 476.297 334.234 479.906 323.156 482.891 312.156 486.391 295 488.781 275.688 489.578 256.359 489.344 245.813 488.516 233.891 487.078 222 485.406 212.016 482.891 200.484 Z"/>
 </defs>
 <use id="Эллипс-2" stroke="url(#linear-gradient-1)" stroke-opacity="1" stroke-linecap="round" fill="none" stroke-width="6" xlink:href="#stroke-path"/>
 <defs>
  <path id="Путь" d="M188.651 403.6 C325.057 403.6 399.697 290.483 399.697 192.554 399.697 189.372 399.697 186.189 399.552 183.007 414.017 172.592 426.602 159.429 436.583 144.53 423.275 150.461 408.955 154.366 393.911 156.247 409.244 147.134 420.961 132.524 426.602 115.166 412.282 123.7 396.37 129.775 379.446 133.102 365.849 118.637 346.61 109.669 325.346 109.669 284.41 109.669 251.14 142.939 251.14 183.875 251.14 189.661 251.864 195.302 253.021 200.799 191.399 197.761 136.721 168.108 100.124 123.266 93.76 134.26 90.144 146.989 90.144 160.586 90.144 186.334 103.307 209.044 123.124 222.352 110.973 221.918 99.546 218.591 89.565 213.094 L89.565 214.107 C89.565 249.98 115.168 280.068 149.017 286.866 142.797 288.602 136.287 289.47 129.489 289.47 124.715 289.47 120.086 289.036 115.602 288.168 125.005 317.677 152.488 339.086 184.89 339.664 159.431 359.626 127.464 371.487 92.747 371.487 86.817 371.487 80.886 371.198 75.1 370.475 107.791 391.305 146.847 403.6 188.651 403.6"/>
 </defs>
 <defs>
  <linearGradient id="linear-gradient-2" gradientUnits="userSpaceOnUse" x1="223.946" y1="342.648" x2="223.946" y2="161.697">
   <stop offset="0" stop-color="#e1e1e1" stop-opacity="1"/>
   <stop offset="1" stop-color="#ffffff" stop-opacity="1"/>
  </linearGradient>
 </defs>
 <use id="Путь-1" xlink:href="#Путь" fill="url(#linear-gradient-2)" fill-opacity="1" stroke="none"/>
 <defs>
  <linearGradient id="linear-gradient-3" gradientUnits="userSpaceOnUse" x1="224.681" y1="339.493" x2="224.681" y2="167.117">
   <stop offset="0" stop-color="#f4f4f4" stop-opacity="1"/>
   <stop offset="1" stop-color="#ececec" stop-opacity="1"/>
  </linearGradient>
 </defs>
 <defs>
  <path id="stroke-path-1" d="M149.531 286.484 L149.5 287.281 140.766 289.156 133.313 289.891 125.016 289.859 116.359 288.781 118.578 294.719 122.391 302.328 127.047 309.406 132.516 315.938 138.594 321.734 143.016 325.203 150.172 329.781 155.219 332.359 163.219 335.516 168.813 337.109 168.813 337.125 177.422 338.672 185.266 339.203 185.453 339.875 174.031 348.031 160.828 355.672 146.797 361.938 132.063 366.781 116.734 370.094 104.063 371.578 90.5 371.984 77.188 371.125 89.469 378.297 102.609 384.734 116.281 390.297 116.281 390.313 130.359 394.906 144.906 398.516 159.844 401.125 175.078 402.672 188.641 403.109 199.656 402.859 211.922 401.969 223.844 400.469 223.844 400.484 235.344 398.375 246.5 395.703 257.313 392.484 267.688 388.75 276.484 385.078 286.203 380.406 295.5 375.313 304.422 369.766 317.109 360.688 325.063 354.156 332.641 347.281 339.828 340.063 349.828 328.734 361.797 312.641 372.125 295.688 380.828 278 387.859 259.828 393.234 241.281 393.25 241.281 396.891 222.688 398.859 204.094 399.047 182.766 408.453 175.406 418.203 166.328 427.141 156.375 435.094 145.672 427.875 148.609 417.359 152.031 406.516 154.672 393.594 156.813 393.297 156.063 399.875 151.672 405.578 146.969 410.25 142.281 414.531 137.172 414.547 137.188 418.297 131.734 421.203 126.672 424.063 120.594 425.672 116.219 414.359 122.234 402.688 127.125 390.531 131.016 379.297 133.656 370.203 125.422 360.859 119.297 354.188 116.047 348.984 114.063 337.938 111.25 326.313 110.188 315 110.891 304.266 113.234 299.188 114.953 292.578 117.844 287.922 120.391 281.953 124.328 277.781 127.594 272.594 132.422 267.938 137.688 264.734 141.969 260.953 148.016 258.531 152.734 255.797 159.422 254.188 164.609 254.172 164.609 252.109 175.406 251.703 187.078 252.266 193.438 253.609 201.359 242.922 200.578 231.578 199.156 220.438 197.141 210.844 194.922 200.094 191.859 189.609 188.219 179.359 184.063 169.406 179.422 159.719 174.25 150.344 168.609 141.281 162.516 132.578 155.969 124.234 149 116.25 141.625 108.641 133.844 100.203 124.156 97.797 128.734 95.031 135.375 92.906 142.281 92.891 142.281 91.469 149.391 90.734 156.797 90.719 164.141 91.391 171.219 92.688 177.969 92.703 177.969 94.625 184.547 97.125 190.859 100.156 196.859 103.75 202.578 107.75 207.859 107.766 207.844 112.266 212.766 117.203 217.297 123.719 222.188 123.438 222.891 115.172 222.172 106.453 220.406 98.109 217.688 90.109 213.922 90.516 222.328 91.516 228.781 93.063 234.984 95.094 240.938 99.125 249.516 104.094 257.375 110.078 264.609 116.813 270.938 124.406 276.453 132.563 280.938 141.422 284.406 Z"/>
 </defs>
 <use id="Путь-2" stroke="url(#linear-gradient-3)" stroke-opacity="1" stroke-linecap="round" fill="none" stroke-width="1" xlink:href="#stroke-path-1"/>
</svg>
