<?xml version="1.0" encoding="UTF-8" standalone="no"?><!DOCTYPE svg PUBLIC "-//W3C//DTD SVG 1.1//EN" "http://www.w3.org/Graphics/SVG/1.1/DTD/svg11.dtd"><svg width="100%" height="100%" viewBox="0 0 800 800" version="1.1" xmlns="http://www.w3.org/2000/svg" xmlns:xlink="http://www.w3.org/1999/xlink" xml:space="preserve" xmlns:serif="http://www.serif.com/" style="fill-rule:evenodd;clip-rule:evenodd;stroke-linejoin:round;stroke-miterlimit:2;"><g id="брови---Черные" serif:id="брови - Черные"><path d="M429.339,216.622c1.034,-0.289 3.559,-1.626 3.559,-1.626l10.433,-4.686l14.036,-4.708l7.165,-3.058l4.108,-1.242l7.245,-0.785l12.025,1.659c2.976,1.191 5.793,2.714 8.47,4.53l1.384,1.084l-1.405,-2.361l-2.32,-2.352c0,0 -1.63,-1.541 -2.608,-2.105c-2.257,-1.303 -9.304,-5.509 -10.938,-5.714c-3.453,-0.435 -14.199,-1 -16.284,-0.558c-3.328,0.705 -11.37,2.875 -13.6,3.559c-3.091,0.949 -8.075,2.231 -11.887,3.562c-3.735,1.303 -8.495,3.172 -10.985,4.421c-1.509,0.757 -3.226,2.046 -3.952,3.07c-0.611,0.86 -0.468,2.311 -0.406,3.073c0.044,0.553 1.689,3.139 1.689,3.139c0,0 0.963,1.033 1.631,1.204c0.712,0.183 1.796,0.13 2.64,-0.106Z" style="fill:url(#_Linear1);"/><path d="M371.526,218.537c-0.998,-0.285 -3.437,-1.605 -3.437,-1.605l-10.076,-4.624l-13.555,-4.646l-6.921,-3.018l-3.967,-1.226l-6.998,-0.774l-11.613,1.636c-2.874,1.176 -5.595,2.679 -8.18,4.472l-1.337,1.069l1.357,-2.33l2.241,-2.321c0,0 1.574,-1.521 2.518,-2.078c2.181,-1.286 8.986,-5.436 10.565,-5.639c3.334,-0.428 13.713,-0.986 15.726,-0.551c3.214,0.697 10.981,2.838 13.135,3.514c2.985,0.936 7.799,2.201 11.48,3.514c3.607,1.286 8.205,3.131 10.609,4.363c1.458,0.747 3.116,2.019 3.818,3.03c0.589,0.849 0.451,2.281 0.392,3.033c-0.043,0.546 -1.632,3.098 -1.632,3.098c0,0 -0.93,1.019 -1.575,1.188c-0.687,0.181 -1.735,0.128 -2.55,-0.105Z" style="fill:url(#_Linear2);"/></g><g id="брови---Блонд" serif:id="брови - Блонд"><path d="M429.339,216.622c1.034,-0.289 3.559,-1.626 3.559,-1.626l10.433,-4.686l14.036,-4.708l7.165,-3.058l4.108,-1.242l7.245,-0.785l12.025,1.659c2.976,1.191 5.793,2.714 8.47,4.53l1.384,1.084l-1.405,-2.361l-2.32,-2.352c0,0 -1.63,-1.541 -2.608,-2.105c-2.257,-1.303 -9.304,-5.509 -10.938,-5.714c-3.453,-0.435 -14.199,-1 -16.284,-0.558c-3.328,0.705 -11.37,2.875 -13.6,3.559c-3.091,0.949 -8.075,2.231 -11.887,3.562c-3.735,1.303 -8.495,3.172 -10.985,4.421c-1.509,0.757 -3.226,2.046 -3.952,3.07c-0.611,0.86 -0.468,2.311 -0.406,3.073c0.044,0.553 1.689,3.139 1.689,3.139c0,0 0.963,1.033 1.631,1.204c0.712,0.183 1.796,0.13 2.64,-0.106Z" style="fill:url(#_Linear3);"/><path d="M371.526,218.537c-0.998,-0.285 -3.437,-1.605 -3.437,-1.605l-10.076,-4.624l-13.555,-4.646l-6.921,-3.018l-3.967,-1.226l-6.998,-0.774l-11.613,1.636c-2.874,1.176 -5.595,2.679 -8.18,4.472l-1.337,1.069l1.357,-2.33l2.241,-2.321c0,0 1.574,-1.521 2.518,-2.078c2.181,-1.286 8.986,-5.436 10.565,-5.639c3.334,-0.428 13.713,-0.986 15.726,-0.551c3.214,0.697 10.981,2.838 13.135,3.514c2.985,0.936 7.799,2.201 11.48,3.514c3.607,1.286 8.205,3.131 10.609,4.363c1.458,0.747 3.116,2.019 3.818,3.03c0.589,0.849 0.451,2.281 0.392,3.033c-0.043,0.546 -1.632,3.098 -1.632,3.098c0,0 -0.93,1.019 -1.575,1.188c-0.687,0.181 -1.735,0.128 -2.55,-0.105Z" style="fill:url(#_Linear4);"/></g><g id="брови---Седые" serif:id="брови - Седые"><path d="M429.339,216.622c1.034,-0.289 3.559,-1.626 3.559,-1.626l10.433,-4.686l14.036,-4.708l7.165,-3.058l4.108,-1.242l7.245,-0.785l12.025,1.659c2.976,1.191 5.793,2.714 8.47,4.53l1.384,1.084l-1.405,-2.361l-2.32,-2.352c0,0 -1.63,-1.541 -2.608,-2.105c-2.257,-1.303 -9.304,-5.509 -10.938,-5.714c-3.453,-0.435 -14.199,-1 -16.284,-0.558c-3.328,0.705 -11.37,2.875 -13.6,3.559c-3.091,0.949 -8.075,2.231 -11.887,3.562c-3.735,1.303 -8.495,3.172 -10.985,4.421c-1.509,0.757 -3.226,2.046 -3.952,3.07c-0.611,0.86 -0.468,2.311 -0.406,3.073c0.044,0.553 1.689,3.139 1.689,3.139c0,0 0.963,1.033 1.631,1.204c0.712,0.183 1.796,0.13 2.64,-0.106Z" style="fill:url(#_Linear5);"/><path d="M371.526,218.537c-0.998,-0.285 -3.437,-1.605 -3.437,-1.605l-10.076,-4.624l-13.555,-4.646l-6.921,-3.018l-3.967,-1.226l-6.998,-0.774l-11.613,1.636c-2.874,1.176 -5.595,2.679 -8.18,4.472l-1.337,1.069l1.357,-2.33l2.241,-2.321c0,0 1.574,-1.521 2.518,-2.078c2.181,-1.286 8.986,-5.436 10.565,-5.639c3.334,-0.428 13.713,-0.986 15.726,-0.551c3.214,0.697 10.981,2.838 13.135,3.514c2.985,0.936 7.799,2.201 11.48,3.514c3.607,1.286 8.205,3.131 10.609,4.363c1.458,0.747 3.116,2.019 3.818,3.03c0.589,0.849 0.451,2.281 0.392,3.033c-0.043,0.546 -1.632,3.098 -1.632,3.098c0,0 -0.93,1.019 -1.575,1.188c-0.687,0.181 -1.735,0.128 -2.55,-0.105Z" style="fill:url(#_Linear6);"/></g><g id="брови---Синие" serif:id="брови - Синие"><path d="M429.339,216.622c1.034,-0.289 3.559,-1.626 3.559,-1.626l10.433,-4.686l14.036,-4.708l7.165,-3.058l4.108,-1.242l7.245,-0.785l12.025,1.659c2.976,1.191 5.793,2.714 8.47,4.53l1.384,1.084l-1.405,-2.361l-2.32,-2.352c0,0 -1.63,-1.541 -2.608,-2.105c-2.257,-1.303 -9.304,-5.509 -10.938,-5.714c-3.453,-0.435 -14.199,-1 -16.284,-0.558c-3.328,0.705 -11.37,2.875 -13.6,3.559c-3.091,0.949 -8.075,2.231 -11.887,3.562c-3.735,1.303 -8.495,3.172 -10.985,4.421c-1.509,0.757 -3.226,2.046 -3.952,3.07c-0.611,0.86 -0.468,2.311 -0.406,3.073c0.044,0.553 1.689,3.139 1.689,3.139c0,0 0.963,1.033 1.631,1.204c0.712,0.183 1.796,0.13 2.64,-0.106Z" style="fill:url(#_Linear7);"/><path d="M371.526,218.537c-0.998,-0.285 -3.437,-1.605 -3.437,-1.605l-10.076,-4.624l-13.555,-4.646l-6.921,-3.018l-3.967,-1.226l-6.998,-0.774l-11.613,1.636c-2.874,1.176 -5.595,2.679 -8.18,4.472l-1.337,1.069l1.357,-2.33l2.241,-2.321c0,0 1.574,-1.521 2.518,-2.078c2.181,-1.286 8.986,-5.436 10.565,-5.639c3.334,-0.428 13.713,-0.986 15.726,-0.551c3.214,0.697 10.981,2.838 13.135,3.514c2.985,0.936 7.799,2.201 11.48,3.514c3.607,1.286 8.205,3.131 10.609,4.363c1.458,0.747 3.116,2.019 3.818,3.03c0.589,0.849 0.451,2.281 0.392,3.033c-0.043,0.546 -1.632,3.098 -1.632,3.098c0,0 -0.93,1.019 -1.575,1.188c-0.687,0.181 -1.735,0.128 -2.55,-0.105Z" style="fill:url(#_Linear8);"/></g><g id="брови---Зеленые" serif:id="брови - Зеленые"><path d="M429.339,216.622c1.034,-0.289 3.559,-1.626 3.559,-1.626l10.433,-4.686l14.036,-4.708l7.165,-3.058l4.108,-1.242l7.245,-0.785l12.025,1.659c2.976,1.191 5.793,2.714 8.47,4.53l1.384,1.084l-1.405,-2.361l-2.32,-2.352c0,0 -1.63,-1.541 -2.608,-2.105c-2.257,-1.303 -9.304,-5.509 -10.938,-5.714c-3.453,-0.435 -14.199,-1 -16.284,-0.558c-3.328,0.705 -11.37,2.875 -13.6,3.559c-3.091,0.949 -8.075,2.231 -11.887,3.562c-3.735,1.303 -8.495,3.172 -10.985,4.421c-1.509,0.757 -3.226,2.046 -3.952,3.07c-0.611,0.86 -0.468,2.311 -0.406,3.073c0.044,0.553 1.689,3.139 1.689,3.139c0,0 0.963,1.033 1.631,1.204c0.712,0.183 1.796,0.13 2.64,-0.106Z" style="fill:url(#_Linear9);"/><path d="M371.526,218.537c-0.998,-0.285 -3.437,-1.605 -3.437,-1.605l-10.076,-4.624l-13.555,-4.646l-6.921,-3.018l-3.967,-1.226l-6.998,-0.774l-11.613,1.636c-2.874,1.176 -5.595,2.679 -8.18,4.472l-1.337,1.069l1.357,-2.33l2.241,-2.321c0,0 1.574,-1.521 2.518,-2.078c2.181,-1.286 8.986,-5.436 10.565,-5.639c3.334,-0.428 13.713,-0.986 15.726,-0.551c3.214,0.697 10.981,2.838 13.135,3.514c2.985,0.936 7.799,2.201 11.48,3.514c3.607,1.286 8.205,3.131 10.609,4.363c1.458,0.747 3.116,2.019 3.818,3.03c0.589,0.849 0.451,2.281 0.392,3.033c-0.043,0.546 -1.632,3.098 -1.632,3.098c0,0 -0.93,1.019 -1.575,1.188c-0.687,0.181 -1.735,0.128 -2.55,-0.105Z" style="fill:url(#_Linear10);"/></g><defs><linearGradient id="_Linear1" x1="0" y1="0" x2="1" y2="0" gradientUnits="userSpaceOnUse" gradientTransform="matrix(74.4452,0,0,22.2985,423.319,205.689)"><stop offset="0" style="stop-color:#000;stop-opacity:1"/><stop offset="0.58" style="stop-color:#180801;stop-opacity:1"/><stop offset="0.8" style="stop-color:#4c1804;stop-opacity:1"/><stop offset="1" style="stop-color:#7f2806;stop-opacity:1"/></linearGradient><linearGradient id="_Linear2" x1="0" y1="0" x2="1" y2="0" gradientUnits="userSpaceOnUse" gradientTransform="matrix(-71.8987,0,0,22.0059,377.34,207.747)"><stop offset="0" style="stop-color:#000;stop-opacity:1"/><stop offset="0.55" style="stop-color:#1b0801;stop-opacity:1"/><stop offset="1" style="stop-color:#7f2806;stop-opacity:1"/></linearGradient><linearGradient id="_Linear3" x1="0" y1="0" x2="1" y2="0" gradientUnits="userSpaceOnUse" gradientTransform="matrix(74.4452,0,0,22.2985,423.319,205.689)"><stop offset="0" style="stop-color:#f6ca7e;stop-opacity:1"/><stop offset="0.58" style="stop-color:#f7c886;stop-opacity:1"/><stop offset="0.8" style="stop-color:#f9c498;stop-opacity:1"/><stop offset="1" style="stop-color:#fbc1aa;stop-opacity:1"/></linearGradient><linearGradient id="_Linear4" x1="0" y1="0" x2="1" y2="0" gradientUnits="userSpaceOnUse" gradientTransform="matrix(-71.8987,0,0,22.0059,377.34,207.747)"><stop offset="0" style="stop-color:#f7d08d;stop-opacity:1"/><stop offset="0.55" style="stop-color:#f8ce95;stop-opacity:1"/><stop offset="1" style="stop-color:#fbc7b2;stop-opacity:1"/></linearGradient><linearGradient id="_Linear5" x1="0" y1="0" x2="1" y2="0" gradientUnits="userSpaceOnUse" gradientTransform="matrix(74.4452,0,0,22.2985,423.319,205.689)"><stop offset="0" style="stop-color:#c0bcb4;stop-opacity:1"/><stop offset="0.58" style="stop-color:#c5c0b8;stop-opacity:1"/><stop offset="0.8" style="stop-color:#d0c8c2;stop-opacity:1"/><stop offset="1" style="stop-color:#dacfcb;stop-opacity:1"/></linearGradient><linearGradient id="_Linear6" x1="0" y1="0" x2="1" y2="0" gradientUnits="userSpaceOnUse" gradientTransform="matrix(-71.8987,0,0,22.0059,377.34,207.747)"><stop offset="0" style="stop-color:#c2c2c2;stop-opacity:1"/><stop offset="0.55" style="stop-color:#c8c6c5;stop-opacity:1"/><stop offset="1" style="stop-color:#e0d3ce;stop-opacity:1"/></linearGradient><linearGradient id="_Linear7" x1="0" y1="0" x2="1" y2="0" gradientUnits="userSpaceOnUse" gradientTransform="matrix(74.4452,0,0,22.2985,423.319,205.689)"><stop offset="0" style="stop-color:#7aa5fa;stop-opacity:1"/><stop offset="0.55" style="stop-color:#87b2fa;stop-opacity:1"/><stop offset="1" style="stop-color:#b6e2f8;stop-opacity:1"/></linearGradient><linearGradient id="_Linear8" x1="0" y1="0" x2="1" y2="0" gradientUnits="userSpaceOnUse" gradientTransform="matrix(-71.8987,0,0,22.0059,377.34,207.747)"><stop offset="0" style="stop-color:#7aa5fa;stop-opacity:1"/><stop offset="0.55" style="stop-color:#87b2fa;stop-opacity:1"/><stop offset="1" style="stop-color:#b6e2f8;stop-opacity:1"/></linearGradient><linearGradient id="_Linear9" x1="0" y1="0" x2="1" y2="0" gradientUnits="userSpaceOnUse" gradientTransform="matrix(74.4452,0,0,22.2985,423.319,205.689)"><stop offset="0" style="stop-color:#4fdd08;stop-opacity:1"/><stop offset="0.55" style="stop-color:#69e32d;stop-opacity:1"/><stop offset="1" style="stop-color:#ccf8b6;stop-opacity:1"/></linearGradient><linearGradient id="_Linear10" x1="0" y1="0" x2="1" y2="0" gradientUnits="userSpaceOnUse" gradientTransform="matrix(-71.8987,0,0,22.0059,377.34,207.747)"><stop offset="0" style="stop-color:#4fdd08;stop-opacity:1"/><stop offset="0.55" style="stop-color:#69e32d;stop-opacity:1"/><stop offset="1" style="stop-color:#ccf8b6;stop-opacity:1"/></linearGradient></defs></svg>