<?xml version="1.0" encoding="UTF-8" standalone="no"?>
<!DOCTYPE svg PUBLIC "-//W3C//DTD SVG 1.1//EN" "http://www.w3.org/Graphics/SVG/1.1/DTD/svg11.dtd">
<svg width="100%" height="100%" viewBox="0 0 8889 8889" version="1.1" xmlns="http://www.w3.org/2000/svg" xmlns:xlink="http://www.w3.org/1999/xlink" xml:space="preserve" xmlns:serif="http://www.serif.com/" style="fill-rule:evenodd;clip-rule:evenodd;stroke-linejoin:round;stroke-miterlimit:2;">
    <g transform="matrix(11.1111,0,0,11.1111,0,0)">
        <g id="Очки" transform="matrix(0.779607,0,0,0.768685,85.9324,24.5211)">
            <g transform="matrix(1.89459,0,0,1.20699,-361.844,-34.4902)">
                <path d="M411.341,257.077C411.341,256.176 412.469,250.451 411.21,250.451L403.224,255.507L394.604,251.178C393.621,251.178 394.33,253.165 394.94,254.447C395.112,254.808 395.556,262.533 395.712,263.182L403.514,261.867L410.416,263.291C411.675,263.291 411.341,257.077 411.341,257.077Z"/>
            </g>
            <g transform="matrix(-1.04717,0,0,1.04717,827.689,-20.3132)">
                <g transform="matrix(1.0435,0,0,0.900143,112.523,-1.3864)">
                    <path d="M163.75,290.745C176.665,281.362 250.262,291.055 263.906,302.377C277.55,313.698 258.528,349.292 245.613,358.675C232.699,368.058 200.062,369.997 186.418,358.675C172.774,347.353 150.836,300.128 163.75,290.745Z" style="fill:rgb(255,240,203);fill-opacity:0.23;"/>
                </g>
                <g transform="matrix(-0.896131,0,0,1,754.601,-5.68434e-14)">
                    <path d="M527.832,258.282C512.273,249.294 423.608,258.579 407.171,269.425C390.962,280.12 413.65,314.366 429.208,323.354C444.767,332.343 484.086,334.2 500.524,323.354C516.961,312.509 543.391,267.27 527.832,258.282ZM523.565,260.504C509.107,252.105 426.712,260.782 411.437,270.916C396.329,280.94 417.458,312.909 431.916,321.308C446.375,329.707 482.913,331.442 498.188,321.308C509.201,314.002 525.04,289.992 527.604,274.014C528.596,267.829 527.6,262.848 523.565,260.504Z"/>
                </g>
            </g>
            <g transform="matrix(1.04717,0,0,1.04717,-23.2237,-17.7379)">
                <g transform="matrix(1.0435,0,0,0.900143,112.523,-1.3864)">
                    <path d="M163.75,290.745C176.665,281.362 250.262,291.055 263.906,302.377C277.55,313.698 258.528,349.292 245.613,358.675C232.699,368.058 200.062,369.997 186.418,358.675C172.774,347.353 150.836,300.128 163.75,290.745Z" style="fill:rgb(255,240,203);fill-opacity:0.23;"/>
                </g>
                <g transform="matrix(-0.896131,0,0,1,754.601,-1.24232)">
                    <path d="M527.832,258.282C512.273,249.294 423.608,258.579 407.171,269.425C390.962,280.12 413.65,314.366 429.208,323.354C444.767,332.343 484.086,334.2 500.524,323.354C516.961,312.509 543.391,267.27 527.832,258.282ZM523.565,260.504C509.107,252.105 426.712,260.782 411.437,270.916C396.329,280.94 417.458,312.909 431.916,321.308C446.375,329.707 482.913,331.442 498.188,321.308C509.201,314.002 525.04,289.992 527.604,274.014C528.596,267.829 527.6,262.848 523.565,260.504Z"/>
                </g>
            </g>
            <g transform="matrix(0.573773,0,0,1.23332,233.833,-52.8214)">
                <path d="M527.563,249.223C534.495,244.973 556.349,233.74 556.349,233.74C556.349,233.74 559.085,227.704 555.839,229.64L537.233,239.598L523.244,247.086C522.325,247.086 523.716,246.753 523.716,247.672L523.716,251.002C519.656,252.008 524.02,260.522 525.308,260.514L527.563,249.223Z"/>
            </g>
            <g transform="matrix(-0.453699,0,0,1.17556,507.507,-34.1617)">
                <path d="M527.563,249.223C534.495,244.973 556.349,233.74 556.349,233.74C556.349,233.74 559.085,227.704 555.839,229.64L537.233,239.598L523.244,247.086C522.325,247.086 523.716,246.753 523.716,247.672L523.716,251.002C519.656,252.008 524.02,260.522 525.308,260.514L527.563,249.223Z"/>
            </g>
        </g>
    </g>
</svg>
