<?xml version="1.0" encoding="UTF-8" standalone="no"?>
<!DOCTYPE svg PUBLIC "-//W3C//DTD SVG 1.1//EN" "http://www.w3.org/Graphics/SVG/1.1/DTD/svg11.dtd">
<svg width="100%" height="100%" viewBox="0 0 8889 8889" version="1.1" xmlns="http://www.w3.org/2000/svg" xmlns:xlink="http://www.w3.org/1999/xlink" xml:space="preserve" xmlns:serif="http://www.serif.com/" style="fill-rule:evenodd;clip-rule:evenodd;stroke-linejoin:round;stroke-miterlimit:2;">
    <g transform="matrix(11.1111,0,0,11.1111,0,0)">
        <path d="M449.294,133.992C449.334,137.291 449.357,139.201 449.357,139.201L444.093,127.491L444.03,122.271L438.85,132.632L440.157,124.733L439.777,121.616L436.983,131.746L436.527,124.032L435.397,120.81L432.685,129.232L431.419,120.301C431.419,120.301 427.781,119.341 423.046,118.099C421.476,117.687 419.785,117.244 418.066,116.794C410.344,114.774 402.055,112.623 401.585,112.573C399.399,112.34 397.867,109.927 395.691,109.614C392.419,109.144 385.704,109.254 381.954,109.754C378.907,110.16 375.823,111.033 373.188,112.614C369.738,114.684 365.371,122.292 361.256,122.172C357.14,122.052 350.964,110.559 348.493,111.893C346.021,113.226 349.352,125.115 346.427,130.175C343.501,135.236 334.442,138.611 330.938,142.256C328.34,144.958 327.493,148.934 325.402,152.046C322.517,156.339 318.814,163.913 313.625,168.015C308.062,172.412 295.622,173.113 292.021,178.429C288.421,183.744 292.501,192.765 292.021,199.91C291.424,208.804 291.035,221.688 288.44,231.793C285.857,241.849 278.448,252.538 276.45,260.54C274.894,266.771 281.353,276.792 281.332,283.215C281.332,283.317 281.38,283.42 281.482,283.606C282.021,284.587 283.891,286.244 285.259,288.308C285.338,288.428 289.153,290.184 289.233,290.305C294.662,298.455 299.734,309.367 301.728,316.246C304.032,324.195 310.516,334.354 314.841,341.149C318.577,347.018 325.001,353.485 328.248,358.21C330.807,361.933 333.017,366.114 335.138,369.617C337.04,372.759 335.756,375.889 337.37,379.118C338.966,382.309 340.375,385.729 341.393,389.037C342.388,392.27 342.884,395.638 343.48,398.967C344.175,402.843 345.095,407.821 345.561,412.293C346.067,417.146 347.115,423.765 346.513,428.086C346.003,431.753 343.398,434.856 341.952,438.215C340.524,441.533 339.395,444.981 337.837,448.239C336.212,451.634 333.956,455.073 332.206,458.589C330.283,462.451 328.156,468.226 326.3,471.411C324.926,473.767 323.285,476.115 321.065,477.7C318.585,479.47 313.751,480.062 311.419,482.031C309.216,483.892 308.73,488.233 307.077,489.513C305.608,490.652 302.327,488.086 301.503,489.713C300.68,491.341 302.592,496.117 302.136,499.279C301.667,502.531 298.452,505.722 298.692,509.221C298.954,513.036 304.714,520.495 303.706,522.171C302.699,523.846 296.105,519.822 292.645,519.273C289.45,518.767 285.189,520.124 282.947,518.88C280.705,517.635 279.986,514.22 279.193,511.807C278.416,509.442 279.968,505.945 278.191,504.405C276.413,502.865 270.388,501.59 268.529,502.566C266.669,503.542 268.201,507.923 267.034,510.262C265.697,512.94 262.099,519.052 260.508,518.636C258.917,518.219 259.44,509.69 257.488,507.761C255.536,505.832 250.924,506.672 248.795,507.064C247.124,507.371 246.114,509.269 244.712,510.113C243.348,510.934 241.806,511.419 240.381,512.129C237.659,513.487 230.038,518.82 228.377,518.261C226.716,517.702 228.898,511.2 230.415,508.776C231.931,506.351 236.183,505.258 237.475,503.713C238.388,502.623 237.384,500.663 238.171,499.506C238.958,498.349 241.698,498.316 242.198,496.773C242.9,494.607 241.61,489.845 242.381,486.512C243.176,483.079 247.186,479.939 246.965,476.177C246.673,471.197 241.709,461.339 240.63,456.632C239.983,453.807 241.179,450.754 240.495,447.938C239.74,444.83 237.656,441.181 236.101,437.986C234.576,434.853 232.64,431.928 231.167,428.769C229.688,425.599 228.323,422.313 227.23,418.965C225.637,414.084 221.457,406.24 221.605,399.482C221.79,391.093 226.448,375.786 228.336,368.632C229.435,364.469 231.951,360.753 232.935,356.561C233.942,352.27 242.78,334.857 242.872,330.275C242.99,324.339 244.005,314.283 242.139,308.334C240.414,302.837 234.081,299.814 231.674,294.58C229.257,289.324 228.449,282.821 227.636,276.797C226.418,267.775 223.417,250.924 224.367,240.446C225.21,231.154 230.845,222.39 233.339,213.931C235.692,205.948 237.033,197.692 239.329,189.692C241.998,180.398 247.377,169.014 249.349,158.164C251.45,146.604 242.253,141.528 243.443,132.94C244.104,128.175 245.592,123.412 247.999,119.247C252.059,112.22 260.245,82.959 267.053,75.75C272.94,69.518 282.95,63.431 288.098,60.967C291.057,59.551 297.499,62.304 297.939,60.967C298.379,59.63 289.127,54.491 290.74,52.946C292.353,51.401 303.211,52.422 307.617,51.697C310.922,51.153 314.348,49.782 317.174,48.595C319.761,47.508 322.171,46.029 324.571,44.576C328.763,42.039 336.149,36.666 342.323,33.373C349.44,29.576 358.198,23.112 367.271,21.8C381.305,19.769 413.998,19.357 426.528,21.19C433.028,22.14 437.949,28.93 442.454,32.798C443.154,33.399 446.07,35.299 447.309,36.659C450.462,32.918 457.596,30.296 459.634,32.95C462.831,37.113 465.649,43.664 467.783,46.426C468.923,47.901 470.665,48.949 472.439,49.522C477.256,51.078 490.186,50.525 496.684,55.76C503.789,61.484 510.192,75.507 515.068,83.863C519.196,90.938 528.789,86.393 533.2,92.798C537.477,99.008 540.335,128.8 543.468,135.659C546.855,143.075 556.564,158.842 558.759,166.571C560.592,173.025 558.23,191.456 559.941,197.943C561.809,205.028 562.379,214.741 562.711,222.182C563.015,228.983 561.895,235.784 561.933,242.592C561.988,252.211 564.198,269.704 563.037,279.899C562.087,288.241 562.048,340.45 559.471,348.441C556.813,356.682 543.257,362.679 541.031,371.217C538.826,379.676 535.456,390.049 535.553,396.863C535.63,402.327 539.203,407.766 541.611,412.098C543.821,416.075 561.192,423.883 560.565,425.668C559.938,427.453 540.028,421.656 537.851,422.808C535.781,423.904 536.331,428.327 536.943,429.774C537.556,431.222 540.888,429.991 541.526,431.492C542.777,434.435 544.379,419.676 544.851,425.057C544.938,426.047 550.544,430.74 550.127,434.23C549.022,443.496 541.046,453.098 541.046,453.098L525.851,447.058L524.428,453.098C513.802,448.285 503.182,443.39 492.978,437.609C491.651,435.717 489.667,434.5 488.853,434.083C488.386,433.527 485.575,430.046 485.331,426.392L482.998,415.794C482.998,415.794 476.605,354.972 476.926,353.807C477.289,352.49 483.168,345.429 483.816,344.437C487.942,338.115 491.351,333.925 494.135,328.549C496.586,323.817 500.76,315.63 500.76,315.63C501.271,314.71 504.853,307.679 508.948,299.441C510.312,296.695 511.125,292.799 512.712,290.305C513.31,289.365 512.414,289.931 513.417,289.422C514.435,288.906 517.338,286.977 517.942,286.048C521.547,280.508 523.003,274.067 525.156,269.88C525.641,268.937 526.122,267.11 527.019,265.06C528.543,261.574 530.564,256.975 532.418,252.711C534.132,248.769 534.913,244.757 535.82,242.528C536.366,241.188 537.995,233.215 537.372,227.523C536.281,217.567 536.699,208.979 534.624,201.701C534.367,200.802 533.928,199.825 533.378,198.92C533.044,198.371 532.637,197.584 532.13,197.184C531.46,196.656 530.527,196.498 529.977,196.232C529.687,196.091 528.679,195.241 528.211,195.138C527.411,194.962 526.436,194.762 525.25,194.752C525.161,194.751 524.248,194.925 523.77,195.227C523.551,195.364 523.098,195.602 522.909,195.831C522.162,196.74 521.079,197.734 520.227,198.832C520.04,199.073 519.864,199.319 519.705,199.569C518.314,201.77 517.482,203.886 516.662,203.437C516.266,203.22 516.035,194.831 515.958,194.967C515.021,196.614 510.52,204.015 510.418,201.511C510.236,197.05 507.879,200.078 507.178,193.557C507.05,192.371 506.617,186.691 506.617,186.691C506.617,186.691 501.031,188.419 501.07,186.553C501.138,183.236 496.947,178.588 496.947,178.588C496.947,178.588 503.705,177.55 506.265,173.766C507.101,172.532 498.459,172.93 498.459,172.93C498.459,172.93 504.722,168.677 503.733,166.726C503.001,165.28 494.939,165.983 494.939,165.983C494.939,165.983 501.242,159.81 501.165,159.613C499.855,156.275 491.624,166.962 488.165,165.297C486.413,164.455 493.56,156.114 492.571,154.848C489.717,151.194 491.125,145.194 488.107,141.675C484.928,137.967 477.579,135.854 473.496,132.604C469.749,129.622 459.341,141.697 454.944,139.798C453.204,139.047 451.071,136.722 449.294,133.992ZM488.853,434.083C488.895,434.133 488.919,434.16 488.919,434.16C488.307,433.865 488.394,433.847 488.853,434.083Z" style="fill:url(#_Linear1);"/>
    </g>
    <defs>
        <linearGradient id="_Linear1" x1="0" y1="0" x2="1" y2="0" gradientUnits="userSpaceOnUse" gradientTransform="matrix(119.28,0,0,401.789,443.093,303.765)"><stop offset="0" style="stop-color:rgb(207,48,48);stop-opacity:1"/><stop offset="1" style="stop-color:rgb(69,26,26);stop-opacity:1"/></linearGradient>
    </defs>
</svg>
