<?xml version="1.0" encoding="UTF-8" standalone="no"?>
<!DOCTYPE svg PUBLIC "-//W3C//DTD SVG 1.1//EN" "http://www.w3.org/Graphics/SVG/1.1/DTD/svg11.dtd">
<svg width="100%" height="100%" viewBox="0 0 8889 8889" version="1.1" xmlns="http://www.w3.org/2000/svg" xmlns:xlink="http://www.w3.org/1999/xlink" xml:space="preserve" xmlns:serif="http://www.serif.com/" style="fill-rule:evenodd;clip-rule:evenodd;stroke-linejoin:round;stroke-miterlimit:2;">
    <g transform="matrix(11.1111,0,0,11.1111,0,0)">
        <g transform="matrix(1.19796,0,0,1.16653,-118.848,-356.875)">
            <g transform="matrix(1,0,0,1.1174,-2.84217e-14,-57.9311)">
                <path d="M345.179,493.453C345.596,487.532 346.428,475.69 346.428,475.69L347.8,469.142C347.8,469.142 352.444,462.606 353.355,458.937C354.265,455.268 351.868,450.711 353.266,447.127C354.663,443.543 369.58,431.26 369.58,431.26L361.806,426.291L352.846,423.242L339.512,407.338L338.457,431.459C338.457,431.459 335.43,439.326 335.122,443.47C334.801,447.788 336.529,457.367 336.529,457.367L336.962,465.697C336.962,465.697 336.624,477.621 336.454,483.583" style="fill:rgb(139,55,55);"/>
            </g>
            <path d="M530.315,483.583L532.809,480.192L531.993,468.955L532.28,460.479C532.28,460.479 531.048,433.732 531.523,430.243C533.874,412.995 521.66,389.342 517.931,390.5C514.843,391.458 503.9,389.824 503.9,389.824L496.531,400L490.295,414.387C490.295,414.387 490.804,421.316 492.054,423.074C493.219,424.714 496.838,423.972 497.795,424.937C498.717,425.867 497.236,427.681 497.795,428.864C499.041,431.503 505.269,440.769 505.269,440.769L508.898,445.297L515.965,452.016L518.126,462.564L519.557,468.314L530.315,483.583Z" style="fill:rgb(139,56,56);"/>
            <g transform="matrix(0.93587,0.115312,-0.118646,1.01551,93.7119,-57.2332)">
                <path d="M308.28,394.894C308.993,387.731 316.131,370.256 318.372,367.943C320.613,365.629 320.588,381.703 321.724,381.012C322.861,380.321 321.664,368.467 325.193,363.796C329.172,358.529 343.652,349.726 345.599,349.409C347.546,349.092 338.226,359.5 336.874,361.895C336.549,362.471 336.961,364.185 337.486,363.783C338.932,362.675 342.737,356.801 345.55,355.247C348.132,353.821 352.012,355.015 354.365,354.461C356.273,354.011 358.299,353.024 359.669,351.92C360.97,350.872 361.144,348.692 362.582,347.84C364.477,346.717 368.685,345.925 371.04,345.181C372.932,344.584 374.75,343.667 376.713,343.379C378.975,343.047 382.006,343.584 384.61,343.19C387.32,342.781 390.442,340.962 392.972,340.922C395.343,340.884 397.71,342.611 399.791,342.948C401.655,343.251 404.205,343.482 405.457,342.948C406.589,342.466 406.101,340.038 407.297,339.747C408.598,339.431 411.413,341.6 413.263,341.053C415.114,340.506 416.366,337.53 418.4,336.467C420.646,335.292 423.851,334.271 426.736,334.007C430.533,333.66 437.057,334.397 441.183,334.384C444.622,334.373 449.189,333.927 451.49,333.929C452.666,333.93 453.872,334.02 454.987,334.395C456.565,334.926 458.788,336.843 460.958,337.115C464.114,337.512 471.276,336.446 473.925,336.772C475.156,336.923 475.717,338.567 476.852,339.067C478.14,339.636 480.364,339.167 481.658,340.182C483.434,341.577 485.517,345.345 487.511,347.435C489.372,349.385 491.309,351.347 493.625,352.725C495.97,354.119 500.274,353.275 501.578,355.801C502.946,358.451 501.746,364.35 501.834,368.624C501.961,374.777 502.256,388.707 502.34,392.723C499.155,396.609 490.083,412.52 483.233,416.039C476.68,419.406 468.531,412.777 461.24,413.838C437.99,417.221 366.036,433.961 343.736,436.339C337.683,436.984 331.044,430.622 327.435,428.105C325.055,426.445 323.863,423.531 322.084,421.239C319.86,418.375 316.112,414.773 314.093,410.92C311.792,406.529 307.717,400.548 308.28,394.894Z" style="fill:rgb(193,63,63);"/>
            </g>
        </g>
    </g>
</svg>
