<?xml version="1.0" encoding="UTF-8" standalone="no"?>
<!DOCTYPE svg PUBLIC "-//W3C//DTD SVG 1.1//EN" "http://www.w3.org/Graphics/SVG/1.1/DTD/svg11.dtd">
<svg width="100%" height="100%" viewBox="0 0 800 800" version="1.1" xmlns="http://www.w3.org/2000/svg" xmlns:xlink="http://www.w3.org/1999/xlink" xml:space="preserve" xmlns:serif="http://www.serif.com/" style="fill-rule:evenodd;clip-rule:evenodd;stroke-linecap:round;stroke-linejoin:round;stroke-miterlimit:1.5;">
    <g transform="matrix(1.25921,0,0,1.25921,-107.678,-303.927)">
        <g transform="matrix(1,0,0,1,-1.58829,3.97074)">
            <path d="M492.868,403.808C492.367,400.624 491.365,394.255 489.805,389.704C488.233,385.114 486.504,380.158 483.431,376.269C479.478,371.267 472.646,362.845 466.09,359.69C459.534,356.535 449.145,358.412 444.093,357.339C441.072,356.697 437.485,354.833 435.779,353.251C434.377,351.952 435.064,349.329 433.853,347.85C430.948,344.3 422.037,338.368 418.345,331.95C412.869,322.432 400.878,298.154 401,290.74C401.1,284.618 415.573,288.879 419.074,287.465C420.922,286.719 420.84,283.448 422.005,282.256C423.054,281.182 424.756,281.043 426.066,280.311C428.609,278.889 433.07,274.8 437.265,273.725C441.582,272.62 447.425,272.021 451.965,273.68C456.505,275.339 460.464,280.182 464.508,283.681C468.817,287.41 473.968,291.839 477.818,296.054C481.462,300.045 484.724,304.406 487.609,308.976C490.814,314.052 494.453,320.401 497.05,326.51C499.738,332.831 502.62,340.926 503.733,346.898C504.677,351.959 503.733,357.195 503.733,362.343C503.733,369.478 505.147,382.665 503.733,389.712C502.609,395.317 497.705,401.519 495.254,404.62" style="fill:url(#_Linear1);"/>
        </g>
        <g transform="matrix(0.982823,0.184551,-0.184551,0.982823,69.5772,-61.236)">
            <path d="M422.991,328.725C402.024,339.196 418.934,333.907 417.224,340.95C415.145,349.508 404.293,366.824 399.783,375.718C396.627,381.942 393.353,388.105 390.166,394.314C386.661,401.142 381.449,409.512 378.752,416.688C376.263,423.31 375.647,430.492 373.985,437.368C372.073,445.277 368.278,458.156 367.283,464.14C366.782,467.152 367.986,470.219 368.015,473.273C368.058,477.696 367.316,484.882 367.539,490.683C367.808,497.676 368.089,507.736 369.63,515.231C371.082,522.296 374.203,529.085 376.782,535.653C379.308,542.084 388.494,555.522 385.106,554.637C381.718,553.752 363.085,536.948 356.453,530.344C351.977,525.887 348.318,520.571 345.313,515.015C342.296,509.436 340.676,502.918 338.351,496.872C334.824,487.7 330.093,467.93 324.152,459.984C319.359,453.574 306.844,456.042 302.701,449.193C297.794,441.079 296.163,422.948 294.706,411.301C293.382,400.716 293.426,388.752 293.957,379.307C294.425,370.99 295.215,362.516 297.894,354.629C300.81,346.043 306.007,336.17 311.452,327.793C316.897,319.416 323.679,311.726 330.565,304.368C337.831,296.603 347.454,286.431 355.052,281.205C361.27,276.928 368.738,274.396 376.155,273.011C385.165,271.328 404.535,267.602 409.107,271.111C413.678,274.62 401.739,286.414 403.583,294.065C405.897,303.667 432.479,323.987 422.991,328.725Z" style="fill-opacity:0.2;"/>
        </g>
        <g transform="matrix(0.982823,0.184551,-0.184551,0.982823,66.4007,-72.3541)">
            <path d="M433.896,354.497C432.937,357.293 427.836,355.574 425.524,357.414C421.156,360.892 413.522,369.274 407.685,375.365C401.792,381.515 394.989,387.427 390.166,394.314C385.364,401.172 381.449,409.512 378.752,416.688C376.263,423.31 375.647,430.492 373.985,437.368C372.073,445.277 368.278,458.156 367.283,464.14C366.782,467.152 367.986,470.219 368.015,473.273C368.058,477.696 367.316,484.882 367.539,490.683C367.808,497.676 368.089,507.736 369.63,515.231C371.082,522.296 374.203,529.085 376.782,535.653C379.308,542.084 388.494,555.522 385.106,554.637C381.718,553.752 363.085,536.948 356.453,530.344C351.977,525.887 348.318,520.571 345.313,515.015C342.296,509.436 338.102,492.39 338.351,496.872C338.6,501.354 351.315,544.118 346.807,541.906C342.299,539.695 318.652,499.055 311.301,483.603C306.222,472.927 305.346,460.716 302.701,449.193C299.936,437.143 296.163,422.948 294.706,411.301C293.382,400.716 293.426,388.752 293.957,379.307C294.425,370.99 295.215,362.516 297.894,354.629C300.81,346.043 306.007,336.17 311.452,327.793C316.897,319.416 323.679,311.726 330.565,304.368C337.831,296.603 347.454,286.431 355.052,281.205C361.27,276.928 368.738,274.396 376.155,273.011C385.165,271.328 399.567,268.803 409.107,271.111C418.485,273.379 429.99,279.359 433.396,286.856C434.421,289.113 431.448,291.855 432.424,295.031C433.233,297.664 432.153,301.354 432.579,304.365C433.671,312.073 433.302,320.448 433.417,324.63C433.496,327.541 433.729,330.447 433.775,333.358C433.855,338.336 435.271,350.488 433.896,354.497Z" style="fill:url(#_Linear2);"/>
        </g>
        <g transform="matrix(0.794147,0,0,0.794147,85.5122,241.362)">
            <path d="M478.447,129.78C478.447,129.778 478.447,129.777 478.447,129.775" style="fill:none;stroke:rgb(207,48,48);stroke-width:4px;"/>
        </g>
    </g>
    <defs>
        <linearGradient id="_Linear1" x1="0" y1="0" x2="1" y2="0" gradientUnits="userSpaceOnUse" gradientTransform="matrix(97.7429,74.1263,-94.6405,124.793,441.069,294.539)"><stop offset="0" style="stop-color:rgb(207,48,48);stop-opacity:1"/><stop offset="1" style="stop-color:rgb(168,88,88);stop-opacity:1"/></linearGradient>
        <linearGradient id="_Linear2" x1="0" y1="0" x2="1" y2="0" gradientUnits="userSpaceOnUse" gradientTransform="matrix(140.884,0,0,284.495,293.61,412.431)"><stop offset="0" style="stop-color:rgb(242,25,25);stop-opacity:1"/><stop offset="1" style="stop-color:rgb(207,49,49);stop-opacity:1"/></linearGradient>
    </defs>
</svg>
