<?xml version="1.0" encoding="UTF-8" standalone="no"?><!DOCTYPE svg PUBLIC "-//W3C//DTD SVG 1.1//EN" "http://www.w3.org/Graphics/SVG/1.1/DTD/svg11.dtd"><svg width="100%" height="100%" viewBox="0 0 800 800" version="1.1" xmlns="http://www.w3.org/2000/svg" xmlns:xlink="http://www.w3.org/1999/xlink" xml:space="preserve" xmlns:serif="http://www.serif.com/" style="fill-rule:evenodd;clip-rule:evenodd;stroke-linejoin:round;stroke-miterlimit:2;"><g><path d="M633.308,109.022c-15.914,-15.915 -41.755,-15.915 -57.67,0l-466.616,466.616c-15.915,15.915 -15.915,41.756 0,57.67l57.67,57.67c15.914,15.915 41.755,15.915 57.67,0l466.616,-466.616c15.915,-15.915 15.915,-41.756 0,-57.67l-57.67,-57.67Z"/><g><path d="M166.692,109.022c15.914,-15.915 41.755,-15.915 57.67,0l466.616,466.616c15.915,15.915 15.915,41.756 0,57.67l-57.67,57.67c-15.914,15.915 -41.755,15.915 -57.67,0l-466.616,-466.616c-15.915,-15.915 -15.915,-41.756 0,-57.67l57.67,-57.67Z"/></g></g></svg>