<?xml version="1.0" encoding="UTF-8"?>
<svg width="500px" height="500px" viewBox="0 0 500 500" xmlns="http://www.w3.org/2000/svg" xmlns:xlink="http://www.w3.org/1999/xlink" version="1.1">
 <!-- Generated by Pixelmator Pro 1.5.4 -->
 <path id="Эллипс" d="M250 452 C138.438 452 48 361.562 48 250 48 138.439 138.438 48 250 48 361.561 48 452 138.439 452 250 452 361.562 361.561 452 250 452 Z M124.592 358 L373.484 358 C382.648 358 390.076 350.573 390.076 341.408 L390.076 193.984 249.039 270.824 108 194.406 108 341.408 C108 350.573 115.428 358 124.592 358 Z M249.078 241.916 L390.076 182.447 390.076 158.887 C390.076 149.723 382.648 142.295 373.484 142.295 L124.592 142.295 C115.428 142.295 108 149.723 108 158.887 L108 182.018 249.078 241.916 Z" fill="#000000" fill-opacity="1" stroke="none"/>
</svg>
