<?xml version="1.0" encoding="UTF-8"?>
<svg width="500px" height="500px" viewBox="0 0 500 500" xmlns="http://www.w3.org/2000/svg" xmlns:xlink="http://www.w3.org/1999/xlink" version="1.1">
 <!-- Generated by Pixelmator Pro 1.5.4 -->
 <path id="Фигура" d="M250 379.497 C115.794 379.497 7 239.249 7 239.249 7 239.249 115.794 99.001 250 99.001 378.959 99.001 493 239.249 493 239.249 493 239.249 384.204 379.497 250 379.497 Z M249.5 331.001 C300.034 331.001 341 290.035 341 239.501 341 188.967 300.034 148.001 249.5 148.001 198.966 148.001 158 188.967 158 239.501 158 290.035 198.966 331.001 249.5 331.001 Z" fill="#000000" fill-opacity="1" stroke="none"/>
 <path id="Эллипс" d="M249.627 305 C213.935 305 185 275.675 185 239.5 185 235.343 185.383 231.276 186.113 227.334 201.581 235.711 220.582 234.121 233.067 222.031 245.681 209.815 247.792 190.605 239.621 174.781 242.882 174.268 246.224 174 249.627 174 285.319 174 314.254 203.326 314.254 239.5 314.254 275.675 285.319 305 249.627 305 Z" fill="#000000" fill-opacity="1" stroke="none"/>
</svg>
