<?xml version="1.0" encoding="UTF-8"?>
<svg width="500px" height="500px" viewBox="0 0 500 500" xmlns="http://www.w3.org/2000/svg" xmlns:xlink="http://www.w3.org/1999/xlink" version="1.1">
 <!-- Generated by Pixelmator Pro 1.5.4 -->
 <g id="Crossed-eye"/>
 <path id="Путь" d="M395.48 418.191 C394.66 418.178 393.759 418.089 392.748 417.928 391.131 417.67 389.246 416.721 389.246 416.721 L74.846 102.322 C64.498 91.975 73.168 87.031 81.564 78.635 89.96 70.239 94.904 61.568 105.252 71.916 L154.615 121.279 C183.9 107.929 216.14 99 250 99 378.959 99 493 239.25 493 239.25 493 239.25 445.727 300.189 375.064 341.729 L416.351 383.016 C426.698 393.362 418.736 399.014 410.34 407.41 402.993 414.757 401.224 418.288 395.48 418.191 Z M250 379.498 C115.795 379.498 7 239.25 7 239.25 7 239.25 36.683 200.988 84.162 164.434 L158.008 238.281 C158.002 238.687 158 239.093 158 239.5 158 290.034 198.966 331 249.5 331 249.906 331 250.313 330.997 250.719 330.992 L294.283 374.555 C279.924 377.715 265.123 379.498 250 379.498 Z M324.81 291.475 C335.018 276.713 341 258.806 341 239.5 341 188.966 300.034 148 249.5 148 230.194 148 212.287 153.982 197.525 164.189 L241.922 208.586 C245.983 197.937 245.193 185.572 239.621 174.781 242.882 174.268 246.224 174 249.627 174 285.319 174 314.254 203.326 314.254 239.5 314.254 251.436 311.103 262.626 305.599 272.264 L324.81 291.475 Z" fill="#FFFFFF" fill-opacity="1" stroke="none"/>
</svg>
