<?xml version="1.0" encoding="UTF-8" standalone="no"?><!DOCTYPE svg PUBLIC "-//W3C//DTD SVG 1.1//EN" "http://www.w3.org/Graphics/SVG/1.1/DTD/svg11.dtd"><svg width="100%" height="100%" viewBox="0 0 800 800" version="1.1" xmlns="http://www.w3.org/2000/svg" xmlns:xlink="http://www.w3.org/1999/xlink" xml:space="preserve" xmlns:serif="http://www.serif.com/" style="fill-rule:evenodd;clip-rule:evenodd;stroke-linecap:round;stroke-linejoin:round;stroke-miterlimit:1.5;"><g id="Eye"><path d="M449.037,400c28.835,-53.378 85.299,-89.676 150.175,-89.676c64.876,0 121.34,36.298 150.175,89.676c-28.835,53.378 -85.299,89.676 -150.175,89.676c-64.876,0 -121.34,-36.298 -150.175,-89.676Zm27.482,0c0,-23.522 69.689,-70.566 122.693,-70.566c53.003,0 122.693,47.044 122.693,70.566c0,23.522 -69.69,70.566 -122.693,70.566c-53.004,0 -122.693,-47.044 -122.693,-70.566Z" style="stroke:#000;stroke-width:1px;"/><path d="M592.504,338.468c2.203,-0.238 4.442,-0.361 6.708,-0.361c34.159,0 61.892,27.734 61.892,61.893c0,34.159 -27.733,61.893 -61.892,61.893c-34.16,0 -61.893,-27.734 -61.893,-61.893c0,-8.268 1.625,-16.16 4.573,-23.373c4.844,2.522 10.348,3.947 16.182,3.947c19.386,0 35.125,-15.739 35.125,-35.125c0,-2.39 -0.239,-4.725 -0.695,-6.981Z"/></g><g id="Eye1" serif:id="Eye"><path d="M50.613,400c28.835,-53.378 85.299,-89.676 150.175,-89.676c64.876,0 121.34,36.298 150.175,89.676c-28.835,53.378 -85.299,89.676 -150.175,89.676c-64.876,0 -121.34,-36.298 -150.175,-89.676Zm27.482,0c0,-23.522 69.69,-70.566 122.693,-70.566c53.004,0 122.693,47.044 122.693,70.566c0,23.522 -69.689,70.566 -122.693,70.566c-53.003,0 -122.693,-47.044 -122.693,-70.566Z" style="stroke:#000;stroke-width:1px;"/><path d="M194.08,338.468c2.204,-0.238 4.442,-0.361 6.708,-0.361c34.16,0 61.893,27.734 61.893,61.893c0,34.159 -27.733,61.893 -61.893,61.893c-34.159,0 -61.892,-27.734 -61.892,-61.893c0,-8.268 1.624,-16.16 4.572,-23.373c4.844,2.522 10.348,3.947 16.182,3.947c19.386,0 35.125,-15.739 35.125,-35.125c0,-2.39 -0.239,-4.725 -0.695,-6.981Z"/></g></svg>