<?xml version="1.0" encoding="UTF-8" standalone="no"?><!DOCTYPE svg PUBLIC "-//W3C//DTD SVG 1.1//EN" "http://www.w3.org/Graphics/SVG/1.1/DTD/svg11.dtd"><svg width="100%" height="100%" viewBox="0 0 800 800" version="1.1" xmlns="http://www.w3.org/2000/svg" xmlns:xlink="http://www.w3.org/1999/xlink" xml:space="preserve" xmlns:serif="http://www.serif.com/" style="fill-rule:evenodd;clip-rule:evenodd;stroke-linejoin:round;stroke-miterlimit:2;"><g id="Moon"><path d="M519.505,79.458c37.468,16.25 72.559,39.682 103.171,70.293c130.504,130.504 130.504,342.41 0,472.913c-130.504,130.504 -342.409,130.504 -472.913,0c-30.626,-30.625 -54.065,-65.734 -70.317,-103.222c122.266,53.03 269.851,29.598 369.743,-70.294c99.878,-99.878 123.317,-247.435 70.316,-369.69Z" style="fill:#9fb5b8;"/><path d="M605.572,133.799c5.836,5.069 11.543,10.392 17.104,15.952c130.504,130.504 130.504,342.41 0,472.913c-130.504,130.504 -342.409,130.504 -472.913,0c-5.563,-5.562 -10.889,-11.273 -15.952,-17.102c131.283,114.467 330.959,109.194 455.958,-15.805c124.998,-124.998 130.271,-324.675 15.803,-455.958Z" style="fill:#668589;"/></g></svg>