<?xml version="1.0" encoding="UTF-8" standalone="no"?><!DOCTYPE svg PUBLIC "-//W3C//DTD SVG 1.1//EN" "http://www.w3.org/Graphics/SVG/1.1/DTD/svg11.dtd"><svg width="100%" height="100%" viewBox="0 0 1600 900" version="1.1" xmlns="http://www.w3.org/2000/svg" xmlns:xlink="http://www.w3.org/1999/xlink" xml:space="preserve" xmlns:serif="http://www.serif.com/" style="fill-rule:evenodd;clip-rule:evenodd;stroke-linejoin:round;stroke-miterlimit:2;"><path d="M757.462,663.225c13.756,2.74 27.981,4.178 42.538,4.178c14.555,0 28.776,-1.437 42.538,-4.178l-42.538,217.284l-42.538,-217.284Zm-98.04,-47.537c3.889,3.315 7.899,6.497 12.02,9.536l0.033,-0.034c18.61,13.722 39.49,24.543 61.969,31.793l-145.345,166.747l71.323,-208.042Zm352.479,208.042l-145.345,-166.747c27.457,-8.857 52.53,-23.042 74.006,-41.341l71.339,208.088Zm-415.309,-297.736c9.919,26.696 24.946,50.918 43.891,71.475l-207.506,71.139l163.615,-142.614Zm570.431,142.614l-207.549,-71.153c18.954,-20.554 33.99,-44.778 43.916,-71.476l163.633,142.629Zm-486.737,-380.854c33.509,-24.708 74.919,-39.319 119.714,-39.319c102.626,0 187.484,76.689 200.358,175.854l0.007,0c1.058,8.156 1.627,16.464 1.679,24.894l0,0.022l0,0.026c0.003,0.407 0.004,0.816 0.004,1.225l0,0.027l0,0.028c0,0.409 -0.001,0.817 -0.004,1.224l0,0.027l0,0.021c-0.052,8.431 -0.621,16.739 -1.679,24.894l-0.007,0c-12.874,99.165 -97.732,175.854 -200.358,175.854c-44.795,0 -86.205,-14.611 -119.714,-39.319l-0.031,0.033c-49.591,-36.577 -81.894,-95.273 -82.299,-161.48l0,-0.008c-0.003,-0.419 -0.004,-0.832 -0.004,-1.246l0,-0.028l0,-0.027c0,-0.414 0.001,-0.827 0.004,-1.246l0,-0.008c0.405,-66.208 32.708,-124.903 82.299,-161.48l0.031,0.032Zm543.515,168.954l-212.173,41.537c1.451,-6.447 2.615,-12.996 3.477,-19.64l0.008,0c1.135,-8.756 1.746,-17.675 1.802,-26.726l0,-0.023l0,-0.028c0.003,-0.438 0.004,-0.876 0.004,-1.315l0,-0.03l0,-0.029c0,-0.439 -0.001,-0.878 -0.004,-1.315l0,-0.028l0,-0.024c-0.056,-9.05 -0.667,-17.97 -1.802,-26.726l-0.008,0c-0.291,-2.246 -0.618,-4.482 -0.977,-6.702l209.673,41.049Zm-637.94,-41.046c-1.759,10.892 -2.706,22.065 -2.776,33.445l0,0.009c-0.003,0.45 -0.004,0.894 -0.004,1.338l0,0.029l0,0.03c0,0.444 0.001,0.888 0.004,1.338l0,0.008c0.098,15.922 1.913,31.44 5.273,46.384l-212.159,-41.535l209.662,-41.046Zm420.833,-31.105c-8.414,-26.358 -21.73,-50.532 -38.88,-71.456l199.209,-68.294l-160.329,139.75Zm-374.547,-71.469c-17.14,20.921 -30.45,45.097 -38.857,71.455l-160.313,-139.736l199.17,68.281Zm311.703,-24.904c-20.027,-17.768 -43.357,-31.888 -68.954,-41.32l137.005,-157.179l-68.051,198.499Zm-218.747,-41.32c-19.317,7.117 -37.342,16.904 -53.628,28.913l-0.033,-0.035c-5.292,3.903 -10.401,8.041 -15.307,12.396l-68.036,-198.453l137.004,157.179Zm114.902,-9.611c-12.974,-2.423 -26.343,-3.689 -40.005,-3.689c-13.668,0 -27.042,1.267 -40.005,3.689l40.005,-204.347l40.005,204.347Z" style="fill:#ffee37;"/></svg>