<?xml version="1.0" encoding="UTF-8" standalone="no"?>
<!DOCTYPE svg PUBLIC "-//W3C//DTD SVG 1.1//EN" "http://www.w3.org/Graphics/SVG/1.1/DTD/svg11.dtd">
<svg width="100%" height="100%" viewBox="0 0 800 800" version="1.1" xmlns="http://www.w3.org/2000/svg" xmlns:xlink="http://www.w3.org/1999/xlink" xml:space="preserve" xmlns:serif="http://www.serif.com/" style="fill-rule:evenodd;clip-rule:evenodd;stroke-linejoin:round;stroke-miterlimit:2;">
    <g id="Sun" transform="matrix(1.19625,0,0,1.2167,-78.4987,-86.6812)">
        <g transform="matrix(0.797291,0,0,0.779849,81.0836,88.0604)">
            <g transform="matrix(0.923441,0,0,0.923441,-1.6485,-8.70584)">
                <circle cx="434.948" cy="442.59" r="201.168" style="fill:rgb(255,243,22);"/>
            </g>
            <path d="M404.206,214.351C503.654,217.862 583.313,299.702 583.313,400C583.313,500.298 503.654,582.138 404.206,585.649L404.206,214.351Z" style="fill:rgb(241,230,14);"/>
        </g>
        <g>
            <g transform="matrix(1,0,0,1,26.6687,23.3636)">
                <path d="M373.331,42.257L400,205.622L346.663,205.622L373.331,42.257Z" style="fill:rgb(241,230,14);"/>
            </g>
            <g transform="matrix(-1,-1.22465e-16,1.22465e-16,-1,773.331,776.636)">
                <path d="M373.331,42.257L400,205.622L346.663,205.622L373.331,42.257Z" style="fill:rgb(241,230,14);"/>
            </g>
            <g transform="matrix(6.12323e-17,-1,1,6.12323e-17,23.3636,773.331)">
                <path d="M373.331,42.257L400,205.622L346.663,205.622L373.331,42.257Z" style="fill:rgb(241,230,14);"/>
            </g>
            <g transform="matrix(-1.83697e-16,1,-1,-1.83697e-16,776.636,26.6687)">
                <path d="M373.331,42.257L400,205.622L346.663,205.622L373.331,42.257Z" style="fill:rgb(241,230,14);"/>
            </g>
        </g>
        <g>
            <g transform="matrix(-0.707107,-0.707107,0.707107,-0.707107,397.663,930.307)">
                <path d="M373.331,42.257L400,205.622L346.663,205.622L373.331,42.257Z" style="fill:rgb(241,184,14);"/>
            </g>
            <g transform="matrix(0.707107,0.707107,-0.707107,0.707107,402.337,-130.307)">
                <path d="M373.331,42.257L400,205.622L346.663,205.622L373.331,42.257Z" style="fill:rgb(241,184,14);"/>
            </g>
            <g transform="matrix(0.707107,-0.707107,0.707107,0.707107,-130.307,397.663)">
                <path d="M373.331,42.257L400,205.622L346.663,205.622L373.331,42.257Z" style="fill:rgb(241,184,14);"/>
            </g>
            <g transform="matrix(-0.707107,0.707107,-0.707107,-0.707107,930.307,402.337)">
                <path d="M373.331,42.257L400,205.622L346.663,205.622L373.331,42.257Z" style="fill:rgb(241,184,14);"/>
            </g>
        </g>
    </g>
</svg>
