<?xml version="1.0" encoding="UTF-8" standalone="no"?>
<!DOCTYPE svg PUBLIC "-//W3C//DTD SVG 1.1//EN" "http://www.w3.org/Graphics/SVG/1.1/DTD/svg11.dtd">
<svg width="100%" height="100%" viewBox="0 0 8889 8889" version="1.1" xmlns="http://www.w3.org/2000/svg" xmlns:xlink="http://www.w3.org/1999/xlink" xml:space="preserve" xmlns:serif="http://www.serif.com/" style="fill-rule:evenodd;clip-rule:evenodd;stroke-linejoin:round;stroke-miterlimit:2;">
    <g transform="matrix(11.1111,0,0,11.1111,0,0)">
        <g transform="matrix(1.09498,0,0,1.09498,-34.9924,-73.6706)">
            <g id="v.4.3">
                <g>
                    <g id="брови---Каштан" serif:id="брови - Каштан">
                        <g transform="matrix(0.357428,0,0,0.33425,403.086,217.559)">
                            <path d="M58.666,142.265C61.306,141.476 67.758,137.823 67.758,137.823L94.416,125.02L130.278,112.158L148.586,103.801L159.081,100.409L177.594,98.264L208.32,102.796C215.922,106.05 223.119,110.211 229.96,115.174L233.497,118.135L229.906,111.683L223.979,105.258C223.979,105.258 219.813,101.047 217.316,99.506C211.547,95.946 193.542,84.456 189.367,83.894C180.544,82.707 153.087,81.162 147.762,82.369C139.257,84.296 118.709,90.226 113.012,92.095C105.114,94.687 92.379,98.191 82.639,101.825C73.097,105.387 60.933,110.493 54.572,113.905C50.716,115.973 46.329,119.495 44.473,122.293C42.914,124.643 43.279,128.609 43.436,130.691C43.549,132.202 47.752,139.268 47.752,139.268C47.752,139.268 50.213,142.088 51.919,142.557C53.738,143.057 56.509,142.91 58.666,142.265Z" style="fill:url(#_Linear1);"/>
                        </g>
                        <g transform="matrix(-0.345202,0,0,0.329864,391.508,219.932)">
                            <path d="M58.666,142.265C61.306,141.476 67.758,137.823 67.758,137.823L94.416,125.02L130.278,112.158L148.586,103.801L159.081,100.409L177.594,98.264L208.32,102.796C215.922,106.05 223.119,110.211 229.96,115.174L233.497,118.135L229.906,111.683L223.979,105.258C223.979,105.258 219.813,101.047 217.316,99.506C211.547,95.946 193.542,84.456 189.367,83.894C180.544,82.707 153.087,81.162 147.762,82.369C139.257,84.296 118.709,90.226 113.012,92.095C105.114,94.687 92.379,98.191 82.639,101.825C73.097,105.387 60.933,110.493 54.572,113.905C50.716,115.973 46.329,119.495 44.473,122.293C42.914,124.643 43.279,128.609 43.436,130.691C43.549,132.202 47.752,139.268 47.752,139.268C47.752,139.268 50.213,142.088 51.919,142.557C53.738,143.057 56.509,142.91 58.666,142.265Z" style="fill:url(#_Linear2);"/>
                        </g>
                    </g>
                </g>
            </g>
        </g>
    </g>
    <defs>
        <linearGradient id="_Linear1" x1="0" y1="0" x2="1" y2="0" gradientUnits="userSpaceOnUse" gradientTransform="matrix(190.214,0,0,60.9251,43.2838,112.393)"><stop offset="0" style="stop-color:rgb(56,16,0);stop-opacity:1"/><stop offset="1" style="stop-color:rgb(127,40,6);stop-opacity:1"/></linearGradient>
        <linearGradient id="_Linear2" x1="0" y1="0" x2="1" y2="0" gradientUnits="userSpaceOnUse" gradientTransform="matrix(190.214,0,0,60.9251,43.2838,112.393)"><stop offset="0" style="stop-color:rgb(56,16,0);stop-opacity:1"/><stop offset="1" style="stop-color:rgb(127,40,6);stop-opacity:1"/></linearGradient>
    </defs>
</svg>
