<?xml version="1.0" encoding="UTF-8" standalone="no"?><!DOCTYPE svg PUBLIC "-//W3C//DTD SVG 1.1//EN" "http://www.w3.org/Graphics/SVG/1.1/DTD/svg11.dtd"><svg width="100%" height="100%" viewBox="0 0 8889 8889" version="1.1" xmlns="http://www.w3.org/2000/svg" xmlns:xlink="http://www.w3.org/1999/xlink" xml:space="preserve" xmlns:serif="http://www.serif.com/" style="fill-rule:evenodd;clip-rule:evenodd;stroke-linejoin:round;stroke-miterlimit:2;"><g id="брови---Черные" serif:id="брови - Черные"><path d="M4770.44,2406.91c11.48,-3.208 39.537,-18.066 39.537,-18.066l115.926,-52.065l155.95,-52.305l79.618,-33.984l45.639,-13.794l80.506,-8.723l133.613,18.427c33.059,13.236 64.359,30.158 94.105,50.34l15.384,12.04l-15.617,-26.237l-25.776,-26.129c0,0 -18.117,-17.123 -28.974,-23.389c-25.086,-14.48 -103.384,-61.206 -121.541,-63.49c-38.367,-4.828 -157.768,-11.11 -180.925,-6.202c-36.983,7.838 -126.34,31.952 -151.112,39.553c-34.349,10.54 -89.727,24.787 -132.083,39.569c-41.496,14.482 -94.389,35.25 -122.051,49.122c-16.771,8.411 -35.846,22.735 -43.918,34.112c-6.781,9.558 -5.192,25.683 -4.512,34.151c0.494,6.146 18.772,34.879 18.772,34.879c0,0 10.7,11.471 18.121,13.377c7.91,2.032 19.96,1.436 29.338,-1.186Z" style="fill:url(#_Linear1);"/><path d="M4128.07,2428.19c-11.087,-3.167 -38.185,-17.83 -38.185,-17.83l-111.96,-51.381l-150.615,-51.619l-76.894,-33.539l-44.079,-13.613l-77.751,-8.608l-129.044,18.186c-31.927,13.062 -62.157,29.762 -90.885,49.679l-14.858,11.882l15.083,-25.893l24.894,-25.786c0,0 17.497,-16.898 27.983,-23.083c24.228,-14.289 99.848,-60.402 117.383,-62.656c37.054,-4.765 152.372,-10.964 174.737,-6.121c35.717,7.735 122.018,31.533 145.943,39.034c33.173,10.402 86.657,24.462 127.564,39.05c40.077,14.292 91.161,34.787 117.876,48.478c16.197,8.3 34.62,22.437 42.416,33.664c6.549,9.433 5.014,25.346 4.358,33.703c-0.477,6.065 -18.13,34.421 -18.13,34.421c0,0 -10.334,11.321 -17.501,13.202c-7.64,2.005 -19.277,1.417 -28.335,-1.17Z" style="fill:url(#_Linear2);"/></g><g id="брови---Блонд" serif:id="брови - Блонд"><path d="M4770.44,2406.91c11.48,-3.208 39.537,-18.066 39.537,-18.066l115.926,-52.065l155.95,-52.305l79.618,-33.984l45.639,-13.794l80.506,-8.723l133.613,18.427c33.059,13.236 64.359,30.158 94.105,50.34l15.384,12.04l-15.617,-26.237l-25.776,-26.129c0,0 -18.117,-17.123 -28.974,-23.389c-25.086,-14.48 -103.384,-61.206 -121.541,-63.49c-38.367,-4.828 -157.768,-11.11 -180.925,-6.202c-36.983,7.838 -126.34,31.952 -151.112,39.553c-34.349,10.54 -89.727,24.787 -132.083,39.569c-41.496,14.482 -94.389,35.25 -122.051,49.122c-16.771,8.411 -35.846,22.735 -43.918,34.112c-6.781,9.558 -5.192,25.683 -4.512,34.151c0.494,6.146 18.772,34.879 18.772,34.879c0,0 10.7,11.471 18.121,13.377c7.91,2.032 19.96,1.436 29.338,-1.186Z" style="fill:url(#_Linear3);"/><path d="M4128.07,2428.19c-11.087,-3.167 -38.185,-17.83 -38.185,-17.83l-111.96,-51.381l-150.615,-51.619l-76.894,-33.539l-44.079,-13.613l-77.751,-8.608l-129.044,18.186c-31.927,13.062 -62.157,29.762 -90.885,49.679l-14.858,11.882l15.083,-25.893l24.894,-25.786c0,0 17.497,-16.898 27.983,-23.083c24.228,-14.289 99.848,-60.402 117.383,-62.656c37.054,-4.765 152.372,-10.964 174.737,-6.121c35.717,7.735 122.018,31.533 145.943,39.034c33.173,10.402 86.657,24.462 127.564,39.05c40.077,14.292 91.161,34.787 117.876,48.478c16.197,8.3 34.62,22.437 42.416,33.664c6.549,9.433 5.014,25.346 4.358,33.703c-0.477,6.065 -18.13,34.421 -18.13,34.421c0,0 -10.334,11.321 -17.501,13.202c-7.64,2.005 -19.277,1.417 -28.335,-1.17Z" style="fill:url(#_Linear4);"/></g><defs><linearGradient id="_Linear1" x1="0" y1="0" x2="1" y2="0" gradientUnits="userSpaceOnUse" gradientTransform="matrix(827.169,0,0,247.761,4703.55,2285.43)"><stop offset="0" style="stop-color:#000;stop-opacity:1"/><stop offset="0.58" style="stop-color:#180801;stop-opacity:1"/><stop offset="0.8" style="stop-color:#4c1804;stop-opacity:1"/><stop offset="1" style="stop-color:#7f2806;stop-opacity:1"/></linearGradient><linearGradient id="_Linear2" x1="0" y1="0" x2="1" y2="0" gradientUnits="userSpaceOnUse" gradientTransform="matrix(-798.874,0,0,244.51,4192.67,2308.3)"><stop offset="0" style="stop-color:#000;stop-opacity:1"/><stop offset="0.55" style="stop-color:#1b0801;stop-opacity:1"/><stop offset="1" style="stop-color:#7f2806;stop-opacity:1"/></linearGradient><linearGradient id="_Linear3" x1="0" y1="0" x2="1" y2="0" gradientUnits="userSpaceOnUse" gradientTransform="matrix(827.169,0,0,247.761,4703.55,2285.43)"><stop offset="0" style="stop-color:#f6ca7e;stop-opacity:1"/><stop offset="0.58" style="stop-color:#f7c886;stop-opacity:1"/><stop offset="0.8" style="stop-color:#f9c498;stop-opacity:1"/><stop offset="1" style="stop-color:#fbc1aa;stop-opacity:1"/></linearGradient><linearGradient id="_Linear4" x1="0" y1="0" x2="1" y2="0" gradientUnits="userSpaceOnUse" gradientTransform="matrix(-798.874,0,0,244.51,4192.67,2308.3)"><stop offset="0" style="stop-color:#f7d08d;stop-opacity:1"/><stop offset="0.55" style="stop-color:#f8ce95;stop-opacity:1"/><stop offset="1" style="stop-color:#fbc7b2;stop-opacity:1"/></linearGradient></defs></svg>